<svg preserveAspectRatio="none" width="100%" height="100%" overflow="visible" style="display: block;" viewBox="0 0 49 49" fill="none" xmlns="http://www.w3.org/2000/svg">
<g id="Frame" clip-path="url(#clip0_13_675)">
<path id="Vector" d="M22.6282 0.521833C23.8403 -0.172477 25.4196 -0.17541 26.6307 0.521833C32.725 3.96502 38.8207 7.40332 44.914 10.8485C46.0596 11.4944 46.8263 12.77 46.8146 14.0902V34.8075C46.8234 36.1829 45.9809 37.4884 44.7717 38.1197C38.698 41.5443 32.6272 44.9728 26.5539 48.3974C25.3169 49.1049 23.7058 49.0501 22.5069 48.2849C20.686 47.2288 18.8618 46.1785 17.0404 45.1239C16.6688 44.9024 16.2488 44.7254 15.9863 44.365C16.2185 44.0521 16.6336 44.013 16.9715 43.8761C17.7313 43.634 18.4295 43.2463 19.1278 42.8698C19.3043 42.749 19.5199 42.7955 19.6891 42.9036C21.2464 43.7964 22.79 44.7151 24.3522 45.5991C24.6857 45.7918 25.023 45.5361 25.3081 45.3776C31.2684 42.0088 37.2365 38.6526 43.1959 35.2828C43.3022 35.2296 43.3901 35.1456 43.448 35.0417C43.5059 34.9378 43.5312 34.8189 43.5205 34.7004C43.5249 27.8664 43.5215 21.0309 43.523 14.1968C43.5339 14.0637 43.503 13.9305 43.4346 13.8158C43.3661 13.7011 43.2635 13.6107 43.1411 13.5572C37.0879 10.1488 31.0381 6.73444 24.9864 3.32498C24.8815 3.25294 24.7573 3.2143 24.6301 3.21412C24.5028 3.21395 24.3785 3.25225 24.2735 3.32401C18.2213 6.73443 12.1724 10.1517 6.12071 13.5602C5.8733 13.6726 5.70755 13.921 5.73688 14.1968C5.73754 21.031 5.73754 27.8659 5.73688 34.7014C5.72673 34.8194 5.75279 34.9376 5.81159 35.0403C5.87038 35.1431 5.95912 35.2254 6.06595 35.2764C7.68095 36.1922 9.29791 37.1017 10.9144 38.0145C11.8243 38.5045 12.9425 38.7954 13.9454 38.4204C14.8304 38.1026 15.4513 37.1995 15.4342 36.2592C15.4425 29.4652 15.4298 22.6698 15.4406 15.8768C15.4181 15.5751 15.7046 15.3258 15.998 15.3541C16.7735 15.3493 17.5504 15.3439 18.3264 15.3566C18.6505 15.3493 18.8735 15.6739 18.8334 15.9776C18.83 22.815 18.8417 29.6525 18.8285 36.49C18.83 38.3118 18.0814 40.2945 16.396 41.1864C14.3194 42.2621 11.7529 42.0337 9.70178 41.0025C7.92591 40.116 6.23121 39.0702 4.48664 38.1206C3.27453 37.4928 2.43647 36.182 2.44478 34.808V14.0902C2.43207 12.7427 3.22906 11.444 4.41085 10.8079C10.4836 7.38001 16.5557 3.95133 22.6282 0.521833Z" fill="var(--fill-0, #8CC84B)"/>
<path id="Vector_2" d="M27.9259 14.8724C30.5745 14.7023 33.4099 14.7717 35.7936 16.0762C37.6389 17.0766 38.6622 19.1752 38.6945 21.2249C38.6432 21.5016 38.3542 21.6542 38.0902 21.6356C37.3215 21.6341 36.5529 21.6454 35.7843 21.6302C35.4581 21.6424 35.2689 21.3417 35.2278 21.0537C35.0073 20.0729 34.4724 19.1014 33.5488 18.6285C32.1318 17.9186 30.488 17.9538 28.9429 17.9689C27.8144 18.0291 26.6008 18.1264 25.6454 18.7904C24.912 19.2925 24.6885 20.3071 24.9506 21.1241C25.1975 21.7109 25.8747 21.9001 26.4287 22.0747C29.6211 22.9098 33.0036 22.8267 36.1344 23.9253C37.4306 24.3732 38.6989 25.244 39.1424 26.6009C39.7228 28.4198 39.4685 30.5946 38.1743 32.0546C37.125 33.2565 35.596 33.9107 34.072 34.2657C32.0433 34.7179 29.9384 34.7297 27.8789 34.5287C25.9417 34.3082 23.9263 33.7992 22.431 32.4795C21.1529 31.3696 20.528 29.6397 20.5901 27.9699C20.6048 27.6883 20.886 27.4917 21.1559 27.5152C21.9299 27.5084 22.7034 27.5064 23.4774 27.5157C23.7864 27.4937 24.0157 27.7607 24.0314 28.0521C24.1741 28.987 24.5252 29.9678 25.3408 30.5218C26.9132 31.5363 28.8871 31.4669 30.6879 31.4953C32.1802 31.4293 33.8549 31.4092 35.0724 30.423C35.7148 29.8607 35.905 28.9195 35.7315 28.1103C35.5437 27.4267 34.8284 27.1079 34.2143 26.8996C31.0635 25.9031 27.6428 26.2645 24.5223 25.1374C23.2559 24.6896 22.0306 23.8432 21.5436 22.5416C20.8644 20.6997 21.1759 18.4212 22.6056 17.0101C24.0001 15.6068 26.0126 15.0661 27.9259 14.8724Z" fill="var(--fill-0, #8CC84B)"/>
</g>
<defs>
<clipPath id="clip0_13_675">
<rect width="48.895" height="48.895" fill="white"/>
</clipPath>
</defs>
</svg>
