<svg preserveAspectRatio="none" width="100%" height="100%" overflow="visible" style="display: block;" viewBox="0 0 49 49" fill="none" xmlns="http://www.w3.org/2000/svg">
<g id="Frame">
<path id="Vector" d="M4.58391 23.5009C4.58391 16.5597 8.34687 10.1481 14.4524 6.67658C17.4614 4.97066 20.8612 4.07395 24.3201 4.07395C27.7791 4.07395 31.1789 4.97066 34.1879 6.67658C40.2934 10.1481 44.0564 16.5597 44.0564 23.5009C44.0564 34.2289 35.221 42.9264 24.3214 42.9264C13.4217 42.9264 4.58391 34.227 4.58391 23.5009Z" fill="var(--fill-0, #FF9D0B)"/>
<path id="Vector_2" d="M24.3214 40.9219C34.094 40.9219 42.0194 33.1212 42.0194 23.5006C42.0194 13.881 34.094 6.08227 24.3214 6.08227C14.5463 6.08227 6.62136 13.881 6.62136 23.5011C6.62136 33.1212 14.5463 40.92 24.3214 40.92V40.9219Z" fill="var(--fill-0, #FFD21E)"/>
<path id="Vector_3" d="M24.1934 30.7899C29.1987 30.7899 30.8142 26.3977 30.8142 24.1426C30.8142 22.9691 30.0133 23.3398 28.7298 23.9612C27.5441 24.5377 25.9492 25.3362 24.1992 25.3362C20.536 25.3362 17.5779 21.8871 17.5779 24.1426C17.5779 26.3977 19.1875 30.7899 24.1992 30.7899H24.1934Z" fill="var(--fill-0, #FF323D)"/>
<path id="Vector_4" d="M30.0706 18.7645C30.7223 18.9845 30.9771 20.2983 31.6332 19.9561C32.0762 19.7277 32.4407 19.3721 32.6799 18.935C32.9192 18.4978 33.0222 17.9992 32.9759 17.503C32.9248 17.0064 32.7273 16.5361 32.4084 16.152C32.0895 15.7679 31.6636 15.4873 31.1849 15.3457C30.7042 15.2005 30.1915 15.1991 29.7101 15.3418C29.2287 15.4844 28.7995 15.7649 28.4756 16.1486C28.1554 16.5283 27.9569 16.9957 27.906 17.4898C27.8551 17.9839 27.954 18.4819 28.1901 18.919C28.502 19.496 29.4902 18.5586 30.0745 18.7581L30.0706 18.7645ZM18.0766 18.7645C17.4253 18.9845 17.1642 20.2983 16.512 19.9561C16.0696 19.7273 15.7057 19.3715 15.467 18.9344C15.2283 18.4973 15.1256 17.9988 15.1722 17.503C15.27 16.4948 15.9766 15.643 16.9608 15.3457C17.4415 15.2005 17.9542 15.1991 18.4356 15.3418C18.917 15.4844 19.3462 15.7649 19.6701 16.1486C19.9903 16.5283 20.1888 16.9957 20.2397 17.4898C20.2906 17.9839 20.1917 18.4819 19.9556 18.919C19.6456 19.496 18.6516 18.5586 18.0707 18.7581L18.0766 18.7645ZM20.359 29.6436C20.6303 29.103 21.0099 28.6239 21.4742 28.2362C21.9386 27.8486 22.4777 27.5605 23.058 27.3901C23.2008 27.3495 23.3514 27.5123 23.5044 27.7387L23.8956 28.3621C24.0359 28.5655 24.1792 28.7185 24.321 28.7185C24.4726 28.7185 24.6271 28.5679 24.7757 28.368L25.1933 27.7529C25.3561 27.5284 25.5131 27.3695 25.67 27.4165C26.759 27.7544 27.6727 28.5045 28.2165 29.5067C30.1155 28.032 30.8143 25.6259 30.8143 24.1429C30.8143 23.1078 30.1908 23.2746 29.164 23.7557L27.9089 24.3586C26.8498 24.8475 25.5703 25.3365 24.1929 25.3365C22.8155 25.3365 21.5403 24.8475 20.4788 24.3586L19.2794 23.7821C18.2204 23.277 17.5725 23.0853 17.5725 24.1424C17.5725 25.5751 18.2243 27.8731 19.9904 29.3581L20.3571 29.6436H20.359Z" fill="var(--fill-0, #3A3B45)"/>
<path id="Vector_5" d="M36.2883 21.1195C36.5041 21.1214 36.7181 21.0808 36.9182 20.9999C37.1183 20.919 37.3004 20.7994 37.4543 20.6481C37.6081 20.4967 37.7305 20.3165 37.8146 20.1177C37.8987 19.919 37.9428 19.7056 37.9443 19.4898C37.9443 18.5911 37.2031 17.8601 36.2883 17.8601C35.8529 17.8571 35.4341 18.0271 35.124 18.3327C34.8138 18.6382 34.6376 19.0544 34.6342 19.4898C34.6342 20.3904 35.3754 21.1195 36.2883 21.1195ZM12.6069 21.1195C13.0423 21.1225 13.4611 20.9525 13.7712 20.6469C14.0814 20.3414 14.2576 19.9252 14.2611 19.4898C14.2611 18.5911 13.5193 17.8601 12.6065 17.8601C12.3907 17.8582 12.1766 17.8988 11.9765 17.9797C11.7764 18.0606 11.5943 18.1802 11.4405 18.3315C11.2866 18.4829 11.1642 18.6631 11.0801 18.8619C10.996 19.0606 10.9519 19.274 10.9504 19.4898C10.9504 20.3904 11.6926 21.1195 12.6069 21.1195ZM9.19798 26.6348C8.37263 26.6348 7.63921 26.9644 7.12581 27.5717C6.68789 28.102 6.44813 28.7683 6.44764 29.4561C6.12667 29.361 5.79419 29.3103 5.45947 29.3055C4.67079 29.3055 3.9579 29.6028 3.45282 30.1386C3.00386 30.5945 2.71994 31.1872 2.64607 31.8227C2.5722 32.4582 2.71261 33.1002 3.04503 33.6469C2.59635 34.0071 2.27683 34.5034 2.13461 35.0609C2.01237 35.5132 1.89013 36.4666 2.5419 37.4362C2.29736 37.8046 2.15154 38.2296 2.11841 38.6706C2.08527 39.1115 2.16594 39.5535 2.35268 39.9543C2.83723 41.0398 4.00289 41.9062 6.20316 42.8166L6.69211 43.0122C8.25675 43.6234 9.6928 44.0146 9.70307 44.019C11.5185 44.5132 13.3877 44.7827 15.2688 44.8213C18.2538 44.8213 20.3886 43.9187 21.6154 42.1443C23.5096 39.4106 23.3306 36.8984 21.057 34.4781L20.7489 34.1642C19.3393 32.7707 18.3961 30.7215 18.2025 30.2692C17.8055 28.9344 16.7562 27.4514 15.0204 27.4514C14.5603 27.4576 14.1083 27.5726 13.7011 27.7868C13.2939 28.001 12.9431 28.3084 12.6774 28.684C12.1684 28.0523 11.6691 27.5575 11.2208 27.27C10.6201 26.8712 9.91877 26.6512 9.19798 26.6348ZM39.6963 26.6343C40.5211 26.6343 41.2585 26.9639 41.7679 27.5712C42.2064 28.1013 42.4464 28.7676 42.4466 29.4556C42.769 29.3608 43.1027 29.3101 43.4387 29.305C44.2293 29.305 44.9422 29.6023 45.4453 30.1382C45.8943 30.594 46.1782 31.1867 46.252 31.8223C46.3257 32.4578 46.1852 33.0998 45.8526 33.6464C46.3003 34.0069 46.6186 34.5032 46.7596 35.0604C46.8819 35.5127 47.0041 36.4661 46.3518 37.4357C46.596 37.8043 46.7417 38.2292 46.7749 38.6701C46.8081 39.1109 46.7278 39.5529 46.5416 39.9538C46.0565 41.0393 44.8914 41.9057 42.693 42.8161L42.206 43.0117C40.6375 43.6229 39.2009 44.0141 39.1907 44.0185C37.3753 44.5128 35.506 44.7822 33.625 44.8208C30.6404 44.8208 28.5056 43.9182 27.2784 42.1438C25.3842 39.4101 25.5631 36.8979 27.8373 34.4776L28.1448 34.1637C29.5603 32.7702 30.5015 30.721 30.6952 30.2687C31.0927 28.9339 32.1376 27.4509 33.8733 27.4509C34.3334 27.4571 34.7855 27.5721 35.1927 27.7863C35.5998 28.0005 35.9506 28.3079 36.2164 28.6835C36.7259 28.0518 37.2251 27.557 37.6793 27.2695C38.1765 26.9388 38.7445 26.7294 39.3374 26.6583L39.6963 26.6343Z" fill="var(--fill-0, #FF9D0B)"/>
<path id="Vector_6" d="M19.9346 41.0147C21.337 38.9899 21.2353 37.4698 19.3137 35.5815C17.3887 33.6907 16.2675 30.9198 16.2675 30.9198C16.2675 30.9198 15.8504 29.3146 14.8985 29.4652C13.945 29.6163 13.2487 32.0121 15.2456 33.4809C17.2356 34.9497 14.8481 35.9457 14.078 34.5688C13.3138 33.1895 11.2157 29.6466 10.1253 28.964C9.04181 28.2878 8.27758 28.6628 8.53232 30.0666C8.78658 31.466 13.3338 34.8539 12.8923 35.5815C12.4478 36.3188 10.8896 34.7258 10.8896 34.7258C10.8896 34.7258 6.01618 30.3556 4.95076 31.4963C3.89121 32.6336 5.76144 33.5865 8.414 35.1698C11.0788 36.7549 11.2866 37.1764 10.9101 37.7773C10.5287 38.3787 4.65544 33.499 4.10537 35.5712C3.5553 37.6306 10.1009 38.2277 9.69749 39.6578C9.2902 41.0841 5.08327 36.9608 4.2276 38.5641C3.36216 40.1732 10.162 42.064 10.2172 42.0781C12.4077 42.6404 17.9847 43.8286 19.9346 41.0147ZM28.9651 41.0147C27.5652 38.9899 27.661 37.4698 29.586 35.5815C31.5076 33.6907 32.6278 30.9198 32.6278 30.9198C32.6278 30.9198 33.0454 29.3146 34.0032 29.4652C34.9503 29.6163 35.6471 32.0121 33.6565 33.4809C31.6602 34.9497 34.0541 35.9457 34.8178 34.5688C35.5859 33.1895 37.6845 29.6466 38.7705 28.964C39.854 28.2878 40.6241 28.6628 40.3635 30.0666C40.1092 31.466 35.5659 34.8539 36.0099 35.5815C36.448 36.3188 38.0062 34.7258 38.0062 34.7258C38.0062 34.7258 42.886 30.3556 43.945 31.4963C45.0046 32.6336 43.1402 33.5865 40.4818 35.1698C37.817 36.7549 37.6131 37.1764 37.9862 37.7773C38.3671 38.3787 44.2404 33.499 44.7904 35.5712C45.3405 37.6306 38.8008 38.2277 39.2022 39.6578C39.6095 41.0841 43.813 36.9608 44.6726 38.5641C45.5341 40.1732 38.7397 42.064 38.683 42.0781C36.4885 42.6404 30.9106 43.8286 28.9651 41.0147Z" fill="var(--fill-0, #FFD21E)"/>
</g>
</svg>
