<svg preserveAspectRatio="none" width="100%" height="100%" overflow="visible" style="display: block;" viewBox="0 0 33 25" fill="none" xmlns="http://www.w3.org/2000/svg">
<path id="Vector" d="M32.1679 9.26057C32.2325 9.04934 32.2325 8.96817 32.2325 8.96817C32.2325 8.75695 32.2163 8.39952 32.1836 8.1883L32.0217 7.71744C31.9239 7.52235 31.7616 7.21382 31.6315 7.03486L29.796 4.32217C29.6826 4.1437 29.4714 3.86744 29.3252 3.68898L26.9538 0.716158C26.8232 0.553827 26.6936 0.407631 26.677 0.423766H26.6447C26.6447 0.423766 26.4658 0.456037 26.2551 0.488797L22.6319 1.20364C22.4212 1.25254 22.0799 1.31708 21.8692 1.34984L21.8041 1.36597C21.5929 1.39824 21.2516 1.38211 21.0404 1.31708L18.003 0.342601C17.7554 0.266849 17.5061 0.196424 17.2554 0.131374C17.2554 0.131374 16.6384 -0.0153109 16.1348 0.00131338C15.6311 0.00131338 15.0136 0.131374 15.0136 0.131374C14.8029 0.180269 14.4611 0.27757 14.2665 0.342601L11.2291 1.31708C11.0179 1.38211 10.6766 1.39824 10.4654 1.36597L10.4003 1.34935C10.1891 1.31708 9.84784 1.23591 9.6371 1.20364L5.9822 0.521067C5.77097 0.472172 5.59201 0.456037 5.59201 0.456037H5.55974C5.54361 0.456037 5.41355 0.586097 5.28348 0.748429L2.91208 3.72125C2.78201 3.88358 2.57079 4.17597 2.44073 4.35493L0.605209 7.06762C0.491283 7.24609 0.312816 7.55511 0.215515 7.74971L0.0531831 8.22106C0.0204234 8.43179 -0.0118465 8.78922 0.00428883 9.00044C0.00428883 9.00044 0.00428855 9.06547 0.0693189 9.29284C0.182755 9.68302 0.459012 10.0404 0.459012 10.0404C0.589073 10.2028 0.832571 10.479 0.978767 10.6252L6.35575 16.343C6.50195 16.5053 6.55084 16.7977 6.46919 16.9928L5.34851 19.6405C5.26735 19.8356 5.25073 20.1602 5.33238 20.3715L5.64091 21.1998C5.89977 21.9003 6.34326 22.5178 6.9244 22.9869L8.01281 23.864C8.17514 23.9941 8.46753 24.0425 8.66213 23.9452L12.1063 22.3048C12.3386 22.1832 12.5565 22.0361 12.7561 21.8662L15.2253 19.6405C15.5822 19.3158 15.5989 18.7633 15.2742 18.4059L10.0918 14.9133C9.91335 14.7999 9.84832 14.5398 9.94563 14.3452L12.2197 10.0566C12.3175 9.86149 12.3337 9.55296 12.2525 9.35787L11.9762 8.72468C11.8951 8.5291 11.6511 8.30222 11.4565 8.22106L4.77987 5.7191C4.58526 5.63793 4.58526 5.55677 4.79649 5.54063L9.10121 5.1348C9.31195 5.11818 9.65372 5.15094 9.86397 5.19934L13.6978 6.27161C13.7989 6.30288 13.8855 6.36912 13.9421 6.45845C13.9987 6.54779 14.0217 6.65437 14.0068 6.7591L12.6749 14.0523C12.6422 14.263 12.6422 14.5559 12.6911 14.7182C12.74 14.8806 12.9507 15.0263 13.1619 15.0752L15.8262 15.6438C16.037 15.6927 16.3787 15.6927 16.5895 15.6438L19.0748 15.0757C19.286 15.0268 19.4973 14.8644 19.5462 14.7182C19.5951 14.5715 19.6112 14.2635 19.5623 14.0523L18.2465 6.75861C18.2138 6.54738 18.3443 6.32002 18.5551 6.27112L22.3884 5.19886C22.5997 5.13383 22.9409 5.11769 23.1522 5.13382L27.4569 5.53965C27.6681 5.55628 27.6843 5.63744 27.473 5.71861L20.7969 8.25333C20.6018 8.33449 20.3583 8.54572 20.2771 8.75695L20.0009 9.39063C19.9197 9.58523 19.9197 9.91038 20.0332 10.0888L22.3239 14.3774C22.3696 14.4744 22.38 14.5844 22.3532 14.6882C22.3264 14.7921 22.2642 14.8833 22.1772 14.9461L16.9958 18.4548C16.6545 18.7961 16.6868 19.3642 17.0447 19.6894L19.5139 21.9146C19.6757 22.0613 19.9686 22.2559 20.1632 22.3371L23.623 23.978C23.8186 24.0753 24.1105 24.0269 24.2733 23.8963L25.3613 23.003C25.9425 22.5377 26.3816 21.9187 26.6286 21.2164L26.9366 20.3876C27.0183 20.193 27.0022 19.8517 26.921 19.6566L25.7998 17.009C25.7187 16.8139 25.7676 16.5215 25.9138 16.3591L31.2898 10.6414C31.4365 10.479 31.6638 10.2189 31.81 10.0566C31.7773 10.0077 32.0696 9.65075 32.1669 9.26057" fill="var(--fill-0, white)"/>
</svg>
