<svg preserveAspectRatio="none" width="100%" height="100%" overflow="visible" style="display: block;" viewBox="0 0 49 49" fill="none" xmlns="http://www.w3.org/2000/svg">
<g id="Frame" clip-path="url(#clip0_13_835)">
<path id="Vector" d="M16.2982 48.8955C20.7965 48.8955 24.4475 45.2445 24.4475 40.7462V32.5973H16.2982C11.7998 32.5973 8.14933 36.2478 8.14933 40.7462C8.14933 45.2445 11.7998 48.8955 16.2982 48.8955Z" fill="var(--fill-0, #0ACF83)"/>
<path id="Vector_2" d="M8.14933 24.447C8.14933 19.9487 11.7998 16.2977 16.2982 16.2977H24.4475V32.5964H16.2982C11.7998 32.5964 8.14933 28.9454 8.14933 24.447Z" fill="var(--fill-0, #A259FF)"/>
<path id="Vector_3" d="M8.14933 8.14933C8.14933 3.65099 11.7998 0 16.2982 0H24.4475V16.2982H16.2982C11.7998 16.2982 8.14933 12.6477 8.14933 8.14933Z" fill="var(--fill-0, #F24E1E)"/>
<path id="Vector_4" d="M24.4475 0H32.5968C37.0952 0 40.7457 3.65099 40.7457 8.14933C40.7457 12.6477 37.0952 16.2982 32.5968 16.2982H24.4475V0Z" fill="var(--fill-0, #FF7262)"/>
<path id="Vector_5" d="M40.7457 24.447C40.7457 28.9454 37.0952 32.5964 32.5968 32.5964C28.0985 32.5964 24.4475 28.9454 24.4475 24.447C24.4475 19.9487 28.0985 16.2977 32.5968 16.2977C37.0952 16.2977 40.7457 19.9487 40.7457 24.447Z" fill="var(--fill-0, #1ABCFE)"/>
</g>
<defs>
<clipPath id="clip0_13_835">
<rect width="48.895" height="48.895" fill="white"/>
</clipPath>
</defs>
</svg>
