<svg preserveAspectRatio="none" width="100%" height="100%" overflow="visible" style="display: block;" viewBox="0 0 49 49" fill="none" xmlns="http://www.w3.org/2000/svg">
<g id="Frame" clip-path="url(#clip0_13_546)">
<path id="Vector" d="M20.421 19.9946C26.0831 16.8492 33.8378 12.5406 33.8378 0H24.4475C24.4475 7.01644 21.0312 8.91405 15.8606 11.7866C10.1995 14.9335 2.44475 19.2407 2.44475 31.7823H11.8346C11.8346 24.7653 15.2504 22.8677 20.421 19.9946ZM36.6727 17.1133C36.6727 24.1297 33.2569 26.0273 28.0863 28.8999C22.4257 32.0453 14.6695 36.3535 14.6695 48.895H24.0593C24.0593 41.8786 27.4751 39.9805 32.6457 37.1079C38.3078 33.9625 46.062 29.6548 46.062 17.1133H36.6727Z" fill="var(--fill-0, #FF3C00)"/>
</g>
<defs>
<clipPath id="clip0_13_546">
<rect width="48.895" height="48.895" fill="white"/>
</clipPath>
</defs>
</svg>
