<svg preserveAspectRatio="none" width="100%" height="100%" overflow="visible" style="display: block;" viewBox="0 0 42 49" fill="none" xmlns="http://www.w3.org/2000/svg">
<path id="Vector" d="M41.5852 15.7735L40.0744 11.6957L41.1139 9.35655C41.177 9.20806 41.1952 9.04435 41.1664 8.8856C41.1375 8.72686 41.0629 8.58003 40.9515 8.46324L38.1088 5.58821C36.8581 4.33699 35.0064 3.8984 33.3332 4.48318L32.5372 4.75944L28.1831 0.048895L20.8249 0H20.776L13.3694 0.0650304L9.03238 4.80785L8.2525 4.53208C7.42795 4.23788 6.53615 4.18715 5.68355 4.38595C4.83095 4.58475 4.05356 5.02468 3.44417 5.65324L0.553003 8.57717C0.460521 8.6683 0.397204 8.78486 0.371088 8.91205C0.344971 9.03924 0.357233 9.17132 0.406318 9.29152L1.49472 11.7285L0 15.8058L0.974478 19.493L5.39312 36.2733C5.9001 38.2103 7.07331 39.9069 8.70674 41.065C8.70674 41.065 14.0676 44.8504 19.3468 48.2775C19.8181 48.5865 20.3051 48.7977 20.8249 48.7977C21.3446 48.7977 21.8321 48.5865 22.3035 48.2775C28.2491 44.3791 32.943 41.0493 32.943 41.0493C34.5674 39.8852 35.7339 38.1902 36.241 36.2571L40.6269 19.4764L41.5852 15.7735Z" fill="var(--fill-0, #F15A22)"/>
</svg>
