<svg preserveAspectRatio="none" width="100%" height="100%" overflow="visible" style="display: block;" viewBox="0 0 49 49" fill="none" xmlns="http://www.w3.org/2000/svg">
<g id="Frame" clip-path="url(#clip0_13_721)">
<path id="Vector" d="M45.0376 37.6814C42.3777 37.6144 40.3158 37.8843 38.5863 38.6271C38.0876 38.829 37.2892 38.8295 37.2227 39.471C37.4886 39.7409 37.5219 40.18 37.7551 40.5511C38.1546 41.2258 38.8523 42.1377 39.4841 42.6105C40.1823 43.1503 40.881 43.6901 41.6125 44.1629C42.9092 44.9731 44.3726 45.4455 45.6365 46.2557C46.3685 46.728 47.0995 47.3362 47.8309 47.8423C48.1971 48.1122 48.4294 48.5513 48.8954 48.72V48.6187C48.6621 48.3146 48.5956 47.876 48.3634 47.5382C48.0309 47.2008 47.6984 46.8972 47.3659 46.5593C46.4012 45.243 45.2043 44.095 43.9071 43.1503C42.8431 42.4071 40.5148 41.395 40.083 40.1457C40.083 40.1457 40.0493 40.1125 40.0165 40.0787C40.748 40.0113 41.6125 39.7414 42.3112 39.5385C43.4416 39.2343 44.4723 39.3018 45.636 38.9982C46.1685 38.8632 46.7005 38.6945 47.2324 38.5253V38.2222C46.634 37.6144 46.2017 36.8042 45.57 36.2302C43.8738 34.7448 42.0114 33.2931 40.083 32.0781C39.0513 31.4033 37.7214 30.9642 36.6242 30.3902C36.2252 30.1878 35.5602 30.0866 35.3275 29.7487C34.7285 29.0065 34.396 28.0276 33.9638 27.1499C32.9996 25.2929 32.0681 23.2339 31.2369 21.2762C30.6385 19.9599 30.2727 18.6432 29.5408 17.4281C26.1157 11.6893 22.3913 8.21239 16.6716 4.80343C15.4409 4.09445 13.9775 3.79032 12.4148 3.4197C11.5836 3.38547 10.7524 3.31799 9.92114 3.28377C9.38819 3.04761 8.85621 2.40659 8.39073 2.10246C6.49556 0.887423 1.60703 -1.74557 0.210591 1.73135C-0.687611 3.92527 1.54054 6.08594 2.30525 7.19977C2.87097 7.97622 3.60195 8.85389 4.00142 9.73156C4.23416 10.3051 4.30017 10.9133 4.5334 11.5211C5.06538 13.0056 5.56411 14.6602 6.26282 16.0439C6.62855 16.7529 7.02754 17.4956 7.49302 18.1366C7.75901 18.5082 8.22449 18.6769 8.32423 19.2847C7.85924 19.9594 7.8255 20.9725 7.55951 21.8165C6.36207 25.6308 6.82804 30.3565 8.52372 33.1581C9.0557 34.0021 10.3196 35.8591 12.0158 35.1501C13.512 34.5424 13.1795 32.6183 13.6117 30.9305C13.712 30.5247 13.6455 30.2557 13.8445 29.9853V30.0528C14.3105 30.998 14.7754 31.9094 15.2082 32.8545C16.2389 34.5086 18.0343 36.2302 19.531 37.3783C20.3294 37.9855 20.9612 39.0319 21.9591 39.4035V39.3018H21.8921C21.6926 38.9982 21.3934 38.8632 21.1274 38.6271C20.5289 38.0193 19.8635 37.2766 19.3985 36.6013C18.0015 34.711 16.7708 32.6183 15.6736 30.4577C15.1417 29.4113 14.6762 28.2638 14.244 27.2174C14.044 26.8116 14.044 26.2043 13.7115 26.0024C13.2128 26.7446 12.4813 27.3861 12.1156 28.2975C11.4838 29.7487 11.4173 31.5378 11.1846 33.3943C11.0511 33.4285 11.1176 33.3943 11.0511 33.4628C9.98715 33.1919 9.62142 32.0781 9.22243 31.1329C8.22449 28.7366 8.05824 24.888 8.92271 22.1201C9.15594 21.4111 10.1534 19.1835 9.75441 18.5082C9.55492 17.8667 8.88946 17.4956 8.52372 16.989C8.09149 16.3475 7.62601 15.5378 7.32677 14.8289C6.52832 12.9386 6.12933 10.8454 5.26487 8.9551C4.86589 8.07744 4.16767 7.16603 3.60244 6.35584C2.97023 5.44444 2.27201 4.80294 1.77328 3.72285C1.60703 3.35173 1.3738 2.74397 1.64028 2.33912C1.70678 2.06873 1.83928 1.96751 2.10576 1.90004C2.53799 1.52844 3.76819 2.00125 4.20043 2.20368C5.43111 2.70974 6.46182 3.18304 7.49302 3.89153C7.9585 4.22891 8.45723 4.8709 9.0557 5.03959H9.75441C10.8184 5.27575 12.0153 5.10706 13.0133 5.4107C14.7759 5.98424 16.3724 6.82866 17.802 7.74006C22.1586 10.5417 25.7499 14.5247 28.1776 19.2842C28.5766 20.0606 28.7428 20.7701 29.1085 21.5798C29.8072 23.2339 30.6717 24.9218 31.3699 26.5422C32.0681 28.1283 32.7331 29.7492 33.7311 31.0654C34.2298 31.7744 36.2247 32.146 37.1229 32.5171C37.7879 32.8203 38.8196 33.0912 39.4176 33.4623C40.548 34.1708 41.679 34.9814 42.7429 35.7574C43.2754 36.1627 44.9378 37.0067 45.0376 37.6814Z" fill="var(--fill-0, #00546B)"/>
<path id="Vector_2" d="M11.1174 8.34749C10.5521 8.34749 10.1532 8.41545 9.75418 8.51618V8.58365H9.82067C10.0867 9.12394 10.5521 9.49554 10.8846 9.96787C11.1506 10.5077 11.3834 11.0485 11.6498 11.5883C11.6826 11.554 11.7158 11.5208 11.7158 11.5208C12.1818 11.1834 12.4146 10.6431 12.4146 9.83292C12.2146 9.59676 12.1813 9.36059 12.0151 9.12394C11.8161 8.78657 11.3834 8.61788 11.1174 8.34749Z" fill="var(--fill-0, #00546B)"/>
</g>
<defs>
<clipPath id="clip0_13_721">
<rect width="48.895" height="48.895" fill="white"/>
</clipPath>
</defs>
</svg>
