<svg preserveAspectRatio="none" width="100%" height="100%" overflow="visible" style="display: block;" viewBox="0 0 49 49" fill="none" xmlns="http://www.w3.org/2000/svg">
<g id="Frame" clip-path="url(#clip0_13_665)">
<path id="Vector" d="M48.895 0H0V48.895H48.895V0Z" fill="var(--fill-0, #F7DF1E)"/>
<path id="Vector_2" d="M32.8453 38.1992C33.83 39.8078 35.1111 40.9896 37.3778 40.9896C39.2813 40.9896 40.4973 40.0381 40.4973 38.7233C40.4973 37.1479 39.2481 36.5896 37.1529 35.6733L36.0039 35.1804C32.6883 33.7673 30.4856 31.9983 30.4856 28.2574C30.4856 24.8117 33.1113 22.188 37.2145 22.188C40.136 22.188 42.2361 23.205 43.7494 25.8669L40.1717 28.1645C39.3835 26.7514 38.5337 26.1955 37.2145 26.1955C35.8689 26.1955 35.0157 27.0492 35.0157 28.1645C35.0157 29.5428 35.8694 30.1007 37.8409 30.9544L38.9899 31.4463C42.8932 33.1205 45.0974 34.8274 45.0974 38.6642C45.0974 42.8007 41.8478 45.0675 37.4839 45.0675C33.2169 45.0675 30.4602 43.0334 29.1112 40.3687L32.8453 38.1992ZM16.6141 38.5977C17.3363 39.8782 17.9929 40.9608 19.5713 40.9608C21.0806 40.9608 22.0331 40.3701 22.0331 38.0735V22.4506H26.6278V38.1361C26.6278 42.8936 23.8383 45.0587 19.7668 45.0587C16.088 45.0587 13.9576 43.1547 12.8741 40.862L16.6141 38.5977Z" fill="var(--fill-0, black)"/>
</g>
<defs>
<clipPath id="clip0_13_665">
<rect width="48.895" height="48.895" fill="white"/>
</clipPath>
</defs>
</svg>
