<svg preserveAspectRatio="none" width="100%" height="100%" overflow="visible" style="display: block;" viewBox="0 0 49 49" fill="none" xmlns="http://www.w3.org/2000/svg">
<g id="Frame" clip-path="url(#clip0_13_818)">
<path id="Vector" d="M48.1479 29.2891C47.8633 28.4256 47.1186 27.8246 46.1559 27.6804C45.7017 27.612 45.1819 27.6413 44.5663 27.7684C43.4936 27.9904 42.698 28.075 42.1172 28.0911C44.3091 24.38 46.0918 20.1476 47.1177 16.1642C48.7772 9.72224 47.8902 6.78756 46.8541 5.46006C44.1121 1.94646 40.1115 0.0591123 35.2856 0.00141613C32.7103 -0.0303656 30.4498 0.47961 29.2715 0.846322C28.1733 0.65172 26.993 0.543173 25.7544 0.523615C23.4324 0.486455 21.3813 0.993985 19.6284 2.03692C18.2177 1.55893 16.771 1.1948 15.3022 0.948024C11.0718 0.25127 7.6628 0.794005 5.16817 2.56058C2.14891 4.69974 0.749041 8.41576 1.0077 13.606C1.08984 15.2537 2.00907 20.2679 3.45685 25.023C4.28855 27.7562 5.17551 30.0259 6.09327 31.7695C7.39436 34.2426 8.78738 35.6982 10.3501 36.2214C11.2263 36.5143 12.8183 36.7191 14.4925 35.3207C14.7047 35.5784 14.9878 35.8341 15.3638 36.0723C15.841 36.3744 16.4248 36.6209 17.0071 36.7666C19.1077 37.2937 21.0747 37.1616 22.7533 36.4238C22.763 36.7231 22.7714 37.0091 22.7777 37.256C22.789 37.6569 22.8002 38.0496 22.8149 38.4168C22.9141 40.9006 23.0828 42.8315 23.5825 44.1825C23.6094 44.2568 23.6461 44.3702 23.6852 44.4905C23.9346 45.2552 24.3507 46.5353 25.4107 47.5377C26.5084 48.5772 27.8354 48.895 29.051 48.895C29.6607 48.895 30.2425 48.8148 30.7525 48.7053C32.5714 48.3141 34.6367 47.7191 36.131 45.5858C37.5435 43.5688 38.23 40.5315 38.3542 35.7452L38.3997 35.3574L38.429 35.1046L38.7615 35.134L38.8476 35.1398C40.6997 35.2244 42.9645 34.8303 44.3556 34.1825C45.4547 33.671 48.9771 31.8062 48.1479 29.2891Z" fill="var(--fill-0, black)"/>
<path id="Vector_2" d="M44.9805 29.7789C39.4729 30.9182 39.0945 29.0484 39.0945 29.0484C44.9091 20.396 47.3401 9.41318 45.2426 6.72493C39.5194 -0.607372 29.6128 2.86075 29.4475 2.95023L29.3942 2.96001C28.3063 2.73363 27.0883 2.59819 25.7197 2.57618C23.2281 2.53511 21.3373 3.23138 19.9032 4.32174C19.9032 4.32174 2.23009 -2.97829 3.0525 13.5042C3.22706 17.01 8.06424 40.0356 13.8339 33.0813C15.9427 30.5378 17.9802 28.3874 17.9802 28.3874C18.9923 29.0621 20.2034 29.4054 21.4737 29.2822L21.5725 29.1981C21.5417 29.5139 21.5558 29.8225 21.6116 30.1882C20.1252 31.8536 20.5623 32.1459 17.5909 32.7591C14.5844 33.3805 16.3505 34.4865 17.5039 34.776C18.9018 35.1266 22.1362 35.6229 24.3213 32.5552L24.2343 32.9053C24.8162 33.3732 25.2254 35.9475 25.157 38.2818C25.0885 40.6155 25.0425 42.2178 25.5012 43.4695C25.9608 44.7213 26.4175 47.5376 30.3237 46.6986C33.587 45.9969 35.2787 44.1795 35.5139 41.1475C35.6806 38.9927 36.0586 39.311 36.0826 37.3841L36.3857 36.4722C36.7353 33.5502 36.441 32.6075 38.4515 33.0461L38.9405 33.0891C40.4205 33.1566 42.3573 32.8505 43.4941 32.3205C45.9422 31.1812 47.3939 29.2792 44.9805 29.7789Z" fill="var(--fill-0, #336791)"/>
<path id="Vector_3" d="M20.9374 15.0717C20.4411 15.0023 19.9917 15.0663 19.7639 15.2389C19.7164 15.2723 19.6761 15.3149 19.6456 15.3642C19.615 15.4136 19.5947 15.4686 19.5859 15.5259C19.5575 15.7313 19.7008 15.9582 19.7893 16.075C20.0387 16.4065 20.4024 16.6339 20.7628 16.6843C20.815 16.6914 20.8669 16.695 20.9188 16.695C21.5197 16.695 22.0663 16.2256 22.1143 15.8794C22.1744 15.4457 21.5466 15.1563 20.9374 15.0717ZM37.3793 15.0854C37.3319 14.7451 36.729 14.6483 36.1559 14.7285C35.5839 14.8077 35.0299 15.0668 35.0758 15.4076C35.113 15.6726 35.5902 16.1249 36.155 16.1249C36.2029 16.1249 36.2511 16.1216 36.2997 16.1151C36.6762 16.0623 36.9534 15.8222 37.0849 15.6839C37.2849 15.4731 37.4008 15.2379 37.3793 15.0854Z" fill="var(--fill-0, white)"/>
<path id="Vector_4" d="M46.8136 29.6492C46.6034 29.012 45.9276 28.8077 44.804 29.0399C41.4704 29.7298 40.2763 29.2521 39.8842 28.9627C42.4756 25.0031 44.6075 20.2173 45.758 15.7522C46.3027 13.637 46.6039 11.6729 46.6283 10.0716C46.6557 8.3143 46.3569 7.02298 45.7413 6.2343C43.2594 3.05368 39.6168 1.34822 35.2074 1.30079C32.1759 1.26706 29.6148 2.04498 29.1185 2.26403C27.9969 1.98674 26.8472 1.8386 25.6919 1.8225C23.4164 1.78534 21.4493 2.33199 19.8206 3.44582C18.2733 2.87823 16.6758 2.45815 15.0494 2.19117C11.1843 1.56678 8.11271 2.0396 5.92075 3.5969C3.30486 5.45492 2.09765 8.77635 2.33185 13.4688C2.41009 15.0476 3.30731 19.9039 4.72282 24.5548C6.58621 30.6764 8.61193 34.1416 10.7433 34.8545C10.9926 34.9376 11.2801 34.9963 11.5975 34.9963C12.3749 34.9963 13.3283 34.6448 14.3199 33.4493C15.5294 31.9944 16.7807 30.5747 18.0721 29.192C18.9024 29.6426 19.8269 29.892 20.7711 29.92L20.778 29.9939C20.6157 30.1875 20.4569 30.384 20.3018 30.5835C19.6495 31.4138 19.5141 31.5869 17.4145 32.0201C16.817 32.1438 15.2309 32.4714 15.2079 33.5867C15.1824 34.8046 17.083 35.3166 17.2991 35.3704C18.0536 35.5601 18.7806 35.6535 19.474 35.6535C21.1594 35.6535 22.6433 35.098 23.8286 34.0228C23.7924 38.3657 23.9728 42.645 24.4925 43.9485C24.9189 45.0159 25.9594 47.6249 29.2451 47.6244C29.7277 47.6244 30.2587 47.5682 30.8425 47.4425C34.2725 46.7052 35.7614 45.1851 36.3383 41.8343C36.6464 40.0428 37.1754 35.7659 37.4238 33.4718C37.9494 33.6361 38.6257 33.7114 39.3566 33.7114C40.8812 33.7114 42.6399 33.3862 43.7435 32.8728C44.9825 32.2958 47.219 30.8794 46.8136 29.6492ZM38.6452 14.1465C38.634 14.8237 38.5411 15.4388 38.4428 16.0808C38.3367 16.7707 38.2267 17.4841 38.1993 18.3505C38.1719 19.1939 38.277 20.0701 38.3787 20.918C38.5841 22.6303 38.7943 24.3929 37.9793 26.1321C37.844 25.8912 37.7235 25.6432 37.6179 25.388C37.5167 25.1415 37.2967 24.746 36.9921 24.1983C35.8073 22.0675 33.0321 17.0768 34.453 15.0403C34.8759 14.434 35.9496 13.8111 38.6452 14.1465ZM35.378 2.67279C39.3288 2.76031 42.4541 4.24232 44.6666 7.07774C46.3633 9.2521 44.495 19.148 39.0848 27.6845L38.921 27.4772L38.8525 27.3917C40.2504 25.0765 39.9771 22.7858 39.7336 20.7547C39.6339 19.9215 39.5395 19.1343 39.5635 18.3945C39.5879 17.6112 39.6916 16.9389 39.7913 16.2891C39.9145 15.4882 40.0392 14.6594 40.005 13.682C40.0304 13.5793 40.0412 13.4585 40.0275 13.3153C39.9395 12.378 38.8726 9.57383 36.6987 7.03618C35.5096 5.64805 33.7748 4.09466 31.4073 3.04684C32.4258 2.83512 33.8183 2.63807 35.3776 2.67279M13.2702 32.5745C12.1778 33.8918 11.4234 33.639 11.175 33.5564C9.55854 33.0156 7.68244 29.589 6.02832 24.1553C4.59716 19.454 3.76106 14.7259 3.69456 13.4004C3.48578 9.20761 4.49937 6.28564 6.70747 4.71513C10.3008 2.15988 16.2088 3.68932 18.5826 4.46528C18.5484 4.49902 18.5132 4.53031 18.4794 4.56454C14.5835 8.50988 14.6759 15.2501 14.6857 15.6622C14.6857 15.8212 14.6984 16.0461 14.717 16.3556C14.784 17.4894 14.9086 19.5993 14.5752 21.9888C14.2657 24.2091 14.9482 26.3825 16.4478 27.9515C16.6017 28.1125 16.7632 28.2653 16.9324 28.4097C15.6735 29.7639 14.4523 31.1527 13.2702 32.5745ZM17.4331 27.0049C16.2244 25.74 15.6758 23.9812 15.9271 22.178C16.2792 19.654 16.1491 17.4557 16.0792 16.2749C16.0694 16.1096 16.0606 15.9644 16.0557 15.8505C16.6248 15.3444 19.2622 13.9274 21.1428 14.3592C22.0009 14.5567 22.524 15.143 22.7416 16.1507C23.8667 21.3698 22.8903 23.5446 22.106 25.2926C21.9446 25.653 21.7916 25.9933 21.661 26.3453L21.5598 26.6177C21.3041 27.3056 21.066 27.9456 20.9183 28.5534C19.6334 28.5495 18.3836 27.9994 17.4331 27.0049ZM17.6301 34.0424C17.2551 33.9485 16.9177 33.7852 16.7197 33.6497C16.885 33.5715 17.1793 33.4654 17.6898 33.3598C20.1595 32.8503 20.5413 32.4904 21.374 31.4299C21.6 31.137 21.836 30.8519 22.0815 30.5752C22.5284 30.0736 22.7323 30.1586 23.103 30.3127C23.4032 30.4369 23.6956 30.8143 23.8139 31.2294C23.8701 31.4255 23.9332 31.7981 23.7269 32.0875C21.9872 34.5308 19.4515 34.4995 17.6301 34.0424ZM30.5565 46.1038C27.5348 46.7531 26.465 45.2071 25.7599 43.44C25.3052 42.2988 25.0812 37.154 25.2402 31.472C25.2421 31.3985 25.2322 31.3252 25.2108 31.2549C25.192 31.1192 25.1638 30.9851 25.1262 30.8534C24.8901 30.0266 24.3151 29.3348 23.6252 29.0482C23.3513 28.9343 22.8482 28.7255 22.2439 28.8805C22.3729 28.3476 22.5959 27.7462 22.8384 27.0954L22.9401 26.8216C23.0545 26.5125 23.1983 26.1923 23.3504 25.8534C24.1713 24.0248 25.2954 21.5199 24.0755 15.8612C23.6183 13.7416 22.0918 12.7065 19.7781 12.9471C18.3909 13.0909 17.1221 13.6522 16.4889 13.9739C16.3533 14.043 16.2278 14.1098 16.1124 14.1744C16.2884 12.0391 16.9564 8.04782 19.4529 5.52288C21.0249 3.93379 23.1186 3.14854 25.6699 3.19108C30.6963 3.27322 33.919 5.85977 35.7379 8.01506C37.3055 9.87258 38.1543 11.7433 38.4931 12.753C35.9457 12.4929 34.2134 12.997 33.3347 14.256C31.4244 16.9946 34.3801 22.3105 35.801 24.8653C36.0611 25.3332 36.286 25.738 36.3569 25.9097C36.8195 27.0342 37.4184 27.7848 37.8556 28.3324C37.9895 28.5001 38.1196 28.6634 38.2188 28.8052C37.4473 29.0287 36.0611 29.5435 36.1877 32.1198C36.0856 33.4121 35.3614 39.4639 34.9937 41.6015C34.5077 44.4257 33.4711 45.4779 30.557 46.1048M43.169 31.6318C42.3803 31.999 41.0601 32.2748 39.806 32.334C38.4208 32.399 37.7157 32.178 37.5495 32.0426C37.4717 30.4373 38.0678 30.2696 38.6985 30.0917C38.7973 30.0643 38.8941 30.0369 38.987 30.0041C39.045 30.0517 39.1087 30.0985 39.1782 30.1445C40.2915 30.8813 42.2776 30.961 45.0813 30.3806L45.1121 30.3743C44.7336 30.7292 44.0867 31.205 43.169 31.6318Z" fill="var(--fill-0, white)"/>
</g>
<defs>
<clipPath id="clip0_13_818">
<rect width="48.895" height="48.895" fill="white"/>
</clipPath>
</defs>
</svg>
