<svg preserveAspectRatio="none" width="100%" height="100%" overflow="visible" style="display: block;" viewBox="0 0 49 49" fill="none" xmlns="http://www.w3.org/2000/svg">
<g id="Frame" clip-path="url(#clip0_13_378)">
<path id="Vector" d="M14.4894 22.5869C14.2651 22.294 13.9339 22.1018 13.5682 22.0525C13.2026 22.0032 12.8323 22.1008 12.5385 22.3238C12.3654 22.4602 12.2258 22.6343 12.1302 22.8328L0.151398 46.7987C0.0423702 47.017 -0.00907631 47.2596 0.0019374 47.5034C0.0129511 47.7472 0.0860599 47.9841 0.21433 48.1918C0.342601 48.3994 0.52178 48.5708 0.734875 48.6897C0.94797 48.8086 1.18792 48.8712 1.43196 48.8714H18.1223C18.3897 48.8784 18.6534 48.8072 18.881 48.6665C19.1086 48.5258 19.2901 48.3217 19.4033 48.0793C23.0054 40.6389 20.8213 29.3266 14.4894 22.5869Z" fill="url(#paint0_linear_13_378)"/>
<path id="Vector_2" d="M23.2944 0.777862C20.308 5.37342 18.5675 10.6664 18.2438 16.1375C17.92 21.6086 19.0241 27.0699 21.4477 31.9856L29.4948 48.0799C29.6137 48.3178 29.7966 48.518 30.0228 48.6579C30.2491 48.7978 30.5098 48.8719 30.7759 48.872H47.4623C47.6505 48.8726 47.8371 48.8359 48.0111 48.7641C48.1852 48.6923 48.3433 48.5868 48.4764 48.4537C48.6095 48.3205 48.715 48.1623 48.7867 47.9883C48.8584 47.8142 48.895 47.6276 48.8944 47.4394C48.894 47.2176 48.8434 46.9987 48.7462 46.7993L25.7309 0.771506C25.6217 0.540723 25.4493 0.345685 25.2336 0.209099C25.018 0.0725139 24.7679 0 24.5126 0C24.2574 0 24.0073 0.0725139 23.7917 0.209099C23.576 0.345685 23.4036 0.540723 23.2944 0.771506V0.777862Z" fill="var(--fill-0, #2684FF)"/>
</g>
<defs>
<linearGradient id="paint0_linear_13_378" x1="21.0838" y1="26.2496" x2="8.43372" y2="48.16" gradientUnits="userSpaceOnUse">
<stop stop-color="#0052CC"/>
<stop offset="0.92" stop-color="#2684FF"/>
</linearGradient>
<clipPath id="clip0_13_378">
<rect width="48.895" height="48.895" fill="white"/>
</clipPath>
</defs>
</svg>
