<svg preserveAspectRatio="none" width="100%" height="100%" overflow="visible" style="display: block;" viewBox="0 0 49 40" fill="none" xmlns="http://www.w3.org/2000/svg">
<g id="Group">
<path id="Vector" d="M31.0236 10.8347H32.5158L36.7663 6.58428L36.9756 4.78054C29.0663 -2.2002 16.9927 -1.44771 10.0119 6.46106C8.07129 8.65726 6.663 11.2712 5.89641 14.0999C6.37011 13.9054 6.89497 13.8736 7.38869 14.0095L15.8881 12.6077C15.8881 12.6077 16.3203 11.8923 16.5438 11.9378C20.3253 7.78514 26.689 7.30157 31.0544 10.8347H31.0236Z" fill="var(--fill-0, #EA4335)"/>
<path id="Vector_2" d="M42.8205 14.0997C41.8435 10.5025 39.8378 7.26867 37.0494 4.79496L31.0852 10.7582C32.3286 11.774 33.325 13.0589 33.9992 14.516C34.6734 15.9731 35.0079 17.5644 34.9772 19.1696V20.2292C37.91 20.2292 40.2853 22.6064 40.2853 25.5372C40.2853 28.4699 37.908 30.8453 34.9772 30.8453H24.3587L23.2992 31.9195V38.2871L24.3587 39.3466H34.9772C37.9419 39.3691 40.8352 38.4371 43.2293 36.6884C45.6234 34.9397 47.3914 32.4671 48.2718 29.6361C50.0755 23.822 47.8621 17.5096 42.8205 14.0997Z" fill="var(--fill-0, #4285F4)"/>
<path id="Vector_3" d="M13.7259 39.2878H24.344V30.7878H13.7259C12.969 30.7877 12.221 30.6247 11.5325 30.3101L10.0407 30.7717L5.76143 35.0222L5.38836 36.5144C7.78919 38.3262 10.7182 39.3002 13.7259 39.2868" fill="var(--fill-0, #34A853)"/>
<path id="Vector_4" d="M13.7259 11.7139C10.8493 11.7308 8.04973 12.6459 5.71833 14.3311C3.38693 16.0164 1.6401 18.3877 0.721821 21.1139C-0.196092 23.8405 -0.239606 26.7856 0.597356 29.5381C1.43432 32.2906 3.10997 34.713 5.39032 36.467L11.5491 30.3087C8.87653 29.1014 7.68985 25.9575 8.89707 23.2849C10.1043 20.6128 13.2482 19.4261 15.9208 20.6328C17.097 21.1663 18.0394 22.1087 18.5729 23.2849L24.7317 17.1266C23.4384 15.4371 21.7721 14.0695 19.8628 13.1306C17.9536 12.1916 15.8536 11.7068 13.7259 11.7139Z" fill="var(--fill-0, #FBBC05)"/>
</g>
</svg>
