<svg preserveAspectRatio="none" width="100%" height="100%" overflow="visible" style="display: block;" viewBox="0 0 49 49" fill="none" xmlns="http://www.w3.org/2000/svg">
<g id="Frame" clip-path="url(#clip0_13_730)">
<path id="Vector" d="M3.47496 24.4472C3.47496 32.7491 8.29943 39.9225 15.2953 43.3227L5.29043 15.9121C4.09068 18.5975 3.47233 21.506 3.47496 24.4472ZM38.6055 23.3887C38.6055 20.7972 37.6746 19.0018 36.8756 17.6044C35.8127 15.8769 34.8167 14.414 34.8167 12.6865C34.8167 10.7586 36.2786 8.96413 38.3381 8.96413C38.431 8.96413 38.519 8.97587 38.6099 8.98076C34.8783 5.5625 29.9071 3.47518 24.4475 3.47518C17.1206 3.47518 10.6738 7.23471 6.92401 12.9285C7.41639 12.9432 7.8804 12.953 8.27351 12.953C10.4674 12.953 13.8632 12.687 13.8632 12.687C14.9936 12.6205 15.1271 14.281 13.9981 14.4145C13.9981 14.4145 12.8613 14.5479 11.5974 14.6144L19.2348 37.3311L23.8246 23.5661L20.5569 14.614C19.4274 14.5479 18.3576 14.414 18.3576 14.414C17.2272 14.348 17.3602 12.6195 18.4896 12.6865C18.4896 12.6865 21.9534 12.9525 24.0143 12.9525C26.2077 12.9525 29.6035 12.6865 29.6035 12.6865C30.7349 12.62 30.8679 14.2805 29.7379 14.414C29.7379 14.414 28.5997 14.5479 27.3377 14.6144L34.9164 37.159L37.0086 30.1684C37.9161 27.2675 38.6055 25.1841 38.6055 23.3887Z" fill="var(--fill-0, #00749A)"/>
<path id="Vector_2" d="M24.8157 26.281L18.5229 44.5658C20.4469 45.1325 22.4423 45.4204 24.448 45.4205C26.8199 45.421 29.1746 45.0193 31.4122 44.2324C31.3536 44.1407 31.3037 44.0438 31.263 43.9429L24.8157 26.281ZM42.8507 14.3849C42.9406 15.0528 42.9915 15.7706 42.9915 16.5412C42.9915 18.6696 42.5944 21.062 41.397 24.0534L34.9908 42.5753C41.2259 38.94 45.4201 32.1846 45.4201 24.4475C45.4257 20.9303 44.5418 17.4688 42.8507 14.3849Z" fill="var(--fill-0, #00749A)"/>
<path id="Vector_3" d="M24.4475 0C10.9672 0 0 10.9672 0 24.447C0 37.9279 10.9672 48.895 24.4475 48.895C37.9279 48.895 48.8965 37.9284 48.8965 24.4465C48.8965 10.9667 37.9269 0 24.4475 0ZM24.448 47.7744C11.5862 47.7744 1.12165 37.3098 1.12165 24.4465C1.12116 11.5857 11.5852 1.12165 24.4475 1.12165C37.3089 1.12165 47.7729 11.5857 47.7729 24.4475C47.7729 37.3103 37.3084 47.7753 24.4475 47.7753" fill="var(--fill-0, #00749A)"/>
</g>
<defs>
<clipPath id="clip0_13_730">
<rect width="48.895" height="48.895" fill="white"/>
</clipPath>
</defs>
</svg>
