<svg preserveAspectRatio="none" width="100%" height="100%" overflow="visible" style="display: block;" viewBox="0 0 309 74" fill="none" xmlns="http://www.w3.org/2000/svg">
<g id="Group 1000004480">
<path id="Vector 290" d="M0.292893 6.65685C-0.0976311 7.04738 -0.0976311 7.68054 0.292893 8.07107L6.65685 14.435C7.04738 14.8256 7.68054 14.8256 8.07107 14.435C8.46159 14.0445 8.46159 13.4113 8.07107 13.0208L2.41421 7.36396L8.07107 1.70711C8.46159 1.31658 8.46159 0.683418 8.07107 0.292893C7.68054 -0.097631 7.04738 -0.097631 6.65685 0.292893L0.292893 6.65685ZM279.531 7.36396V8.36396H279.576L279.621 8.35995L279.531 7.36396ZM307 72.1953C307 72.7476 307.448 73.1953 308 73.1953C308.552 73.1953 309 72.7476 309 72.1953H308H307ZM1 7.36396V8.36396H279.531V7.36396V6.36396H1V7.36396ZM279.531 7.36396L279.621 8.35995C284.276 7.94149 291.23 8.22135 296.974 10.3692C299.838 11.4402 302.345 12.9546 304.129 15.0227C305.898 17.0725 307 19.7134 307 23.145H308H309C309 19.2405 307.73 16.1341 305.643 13.7162C303.573 11.3166 300.741 9.64274 297.675 8.4959C291.556 6.20801 284.276 5.93341 279.442 6.36798L279.531 7.36396ZM308 23.145H307V72.1953H308H309V23.145H308Z" fill="var(--stroke-0, black)"/>
</g>
</svg>
