<svg preserveAspectRatio="none" width="100%" height="100%" overflow="visible" style="display: block;" viewBox="0 0 115 132" fill="none" xmlns="http://www.w3.org/2000/svg">
<g id="Group 1000004482">
<path id="Vector 290" d="M0.292893 6.65685C-0.0976311 7.04738 -0.0976311 7.68054 0.292893 8.07107L6.65685 14.435C7.04738 14.8256 7.68054 14.8256 8.07107 14.435C8.46159 14.0445 8.46159 13.4113 8.07107 13.0208L2.41421 7.36396L8.07107 1.70711C8.46159 1.31658 8.46159 0.683417 8.07107 0.292893C7.68054 -0.0976313 7.04738 -0.0976313 6.65685 0.292893L0.292893 6.65685ZM103.068 7.36396V8.36396H103.288L103.489 8.271L103.068 7.36396ZM112.5 130.045C112.5 130.597 112.948 131.045 113.5 131.045C114.052 131.045 114.5 130.597 114.5 130.045H113.5H112.5ZM1 7.36396V8.36396H103.068V7.36396V6.36396H1V7.36396ZM103.068 7.36396L103.489 8.271C104.094 7.98992 104.865 7.92483 105.727 8.34397C106.613 8.77442 107.675 9.75865 108.7 11.7382C110.76 15.7172 112.5 23.3888 112.5 37.2265H113.5H114.5C114.5 23.3001 112.762 15.2334 110.476 10.8185C109.328 8.6012 107.999 7.22467 106.602 6.54537C105.182 5.85476 103.78 5.9309 102.647 6.45692L103.068 7.36396ZM113.5 37.2265H112.5V130.045H113.5H114.5V37.2265H113.5Z" fill="var(--stroke-0, black)"/>
</g>
</svg>
