<svg preserveAspectRatio="none" width="100%" height="100%" overflow="visible" style="display: block;" viewBox="0 0 49 49" fill="none" xmlns="http://www.w3.org/2000/svg">
<g id="Frame" clip-path="url(#clip0_13_847)">
<path id="Vector" d="M30.024 17.6596L25.1345 22.2122L20.5951 13.0527L22.9401 7.78672C23.5327 6.73547 24.5018 6.72227 25.0949 7.78672L30.024 17.6596Z" fill="var(--fill-0, #FFA000)"/>
<path id="Vector_2" d="M25.1364 22.2107L6.8453 39.2237L20.5975 13.0536L25.1364 22.2107Z" fill="var(--fill-0, #F57F17)"/>
<path id="Vector_3" d="M35.3858 10.6971C36.262 9.8625 37.1636 10.1441 37.392 11.3294L42.147 38.9942L26.375 48.4622C25.8224 48.7717 24.3556 48.8925 24.3556 48.8925C24.3556 48.8925 23.0212 48.7301 22.5103 48.4485L6.8453 39.2235L35.3858 10.6971Z" fill="var(--fill-0, #FFCA28)"/>
<path id="Vector_4" d="M20.5975 13.053L6.8453 39.2226L12.9743 0.972544C13.2041 -0.21316 13.8759 -0.333931 14.4822 0.716334L20.5975 13.053Z" fill="var(--fill-0, #FFA000)"/>
</g>
<defs>
<clipPath id="clip0_13_847">
<rect width="48.895" height="48.895" fill="white"/>
</clipPath>
</defs>
</svg>
