<svg preserveAspectRatio="none" width="100%" height="100%" overflow="visible" style="display: block;" viewBox="0 0 49 49" fill="none" xmlns="http://www.w3.org/2000/svg">
<g id="Frame" clip-path="url(#clip0_13_642)">
<path id="Vector" d="M47.1162 21.6248C47.0297 20.8425 46.9426 19.8876 46.5955 18.8456C46.3347 17.8035 45.9004 16.6745 45.2924 15.4587C44.6845 14.2428 43.9028 13.0269 42.9474 11.8111C42.6003 11.3764 42.1661 10.8557 41.6449 10.4215C42.3397 7.64229 40.7765 5.29729 40.7765 5.29729C38.1709 5.12371 36.4341 6.07863 35.8259 6.59985C35.7393 6.59985 35.6523 6.51331 35.4787 6.42627C35.021 6.23822 34.5576 6.0644 34.0891 5.90505C33.5684 5.73148 33.1337 5.64444 32.6125 5.47086C32.1191 5.39162 31.627 5.30474 31.1364 5.21025H30.8757C29.7468 1.56269 26.4473 0 26.4473 0C22.7998 2.34501 22.105 5.55839 22.105 5.55839V5.73196C21.9309 5.819 21.6708 5.819 21.4967 5.90554C21.2361 5.99257 20.976 6.07912 20.6283 6.16615C20.3677 6.25319 20.1071 6.33973 19.7599 6.51331C19.2387 6.77441 18.6305 7.03453 18.1097 7.29563C17.5885 7.55575 17.0678 7.90339 16.5466 8.25055C16.4595 8.25055 16.4595 8.16351 16.4595 8.16351C11.3353 6.25318 6.81988 8.59819 6.81988 8.59819C6.38569 13.9825 8.81724 17.4565 9.33797 18.0643C9.25143 18.4114 9.07785 18.7591 8.99082 19.1062C8.64366 20.3222 8.29651 21.6248 8.12244 22.9279C8.12244 23.1014 8.03541 23.275 8.03541 23.4491C3.3454 25.7931 1.9558 30.5692 1.9558 30.5692C5.86398 35.0856 10.467 35.3462 10.467 35.3462C11.0747 36.3882 11.6825 37.3431 12.4643 38.2985C12.8115 38.6457 13.1586 39.0803 13.4197 39.428C12.0301 43.5097 13.5933 46.8967 13.5933 46.8967C17.9352 47.0703 20.8014 44.9859 21.4097 44.4647C21.8439 44.6387 22.278 44.7253 22.7122 44.8993C24.0148 45.2465 25.4044 45.4201 26.794 45.5071H28.4442C30.5286 48.4599 34.0891 48.8941 34.0891 48.8941C36.6947 46.2019 36.7813 43.5097 36.7813 42.9015V42.7279C37.3025 42.3807 37.8237 41.9466 38.3449 41.5119C39.3869 40.557 40.2553 39.5145 41.0371 38.3855C41.1241 38.2985 41.2107 38.212 41.2107 38.0384C44.1635 38.212 46.1608 36.2146 46.1608 36.2146C45.6401 33.1748 43.9028 31.6982 43.5557 31.4375H43.4687V27.79C43.3816 27.4428 43.3816 27.0957 43.2951 26.8346C42.9479 25.5325 42.5132 24.3165 41.8185 23.187C41.1241 22.0585 40.3418 21.1031 39.3869 20.2347C38.4315 19.3659 37.3895 18.7581 36.2606 18.2369C35.1311 17.7161 34.0026 17.4555 32.7866 17.2819C32.1783 17.1949 31.6571 17.1949 31.0493 17.1949H30.1809C29.9203 17.1949 29.5732 17.2819 29.3126 17.2819C28.1836 17.4555 27.0546 17.8897 26.0992 18.4975C25.1438 19.1052 24.2754 19.8 23.5811 20.5819C22.8858 21.3637 22.3646 22.3186 22.0174 23.274C21.6703 24.2294 21.4962 25.1849 21.4097 26.1403V27.5294C21.4962 27.964 21.5832 28.4853 21.6703 28.9195C21.9304 29.7878 22.3646 30.5692 22.7993 31.264C23.32 31.9588 23.9282 32.48 24.536 32.9142C25.1438 33.3484 25.8391 33.696 26.5334 33.8696C27.2282 34.0432 27.8364 34.1302 28.5312 34.1302H29.6602C29.7468 34.1302 29.8338 34.1302 29.9203 34.0432C30.0939 34.0432 30.1809 33.9561 30.355 33.9561C30.6156 33.8696 30.8757 33.7826 31.1364 33.609C31.397 33.5219 31.5705 33.3484 31.8312 33.1748C31.9177 33.1748 31.9182 33.0882 32.0047 33.0012C32.2653 32.8271 32.2653 32.48 32.0918 32.3064C31.9182 32.1328 31.6576 32.0458 31.484 32.2194C31.397 32.2194 31.397 32.3064 31.3099 32.3064C31.1364 32.393 30.9628 32.48 30.7022 32.5665C30.5286 32.6536 30.268 32.6536 30.0939 32.7406H28.7048C28.1836 32.6536 27.7494 32.5665 27.2282 32.3064C26.7074 32.1328 26.2728 31.7852 25.8386 31.438C25.4044 31.0904 25.0572 30.5692 24.7966 30.135C24.536 29.7008 24.2754 29.093 24.1884 28.4853C24.1018 28.2247 24.1018 27.877 24.1018 27.6164V27.1822C24.1018 27.0086 24.1018 26.8351 24.1884 26.661C24.449 25.3584 25.0572 24.1429 26.0992 23.1005C26.3598 22.8398 26.6204 22.6663 26.881 22.4057C27.1411 22.2321 27.4888 22.0585 27.7494 21.8844C28.0965 21.7109 28.4437 21.6243 28.7048 21.5373C29.052 21.4502 29.3991 21.3637 29.7468 21.3637H30.7892C31.1364 21.3637 31.5705 21.4502 31.9177 21.5373C32.7 21.7109 33.3943 21.9715 34.0891 22.4057C35.4787 23.187 36.6077 24.403 37.3895 25.7926C37.7367 26.4874 37.9973 27.2692 38.1714 28.0506C38.1714 28.2247 38.2579 28.4853 38.2579 28.6588V30.0479C38.2579 30.309 38.2579 30.4826 38.1709 30.7427C38.1709 30.9168 38.0843 31.1774 38.0843 31.351C38.0843 31.5246 37.9973 31.7852 37.9103 31.9588C37.8237 32.393 37.6497 32.8271 37.4761 33.1748C37.1092 33.992 36.6734 34.7765 36.1735 35.5198C35.1316 36.9094 33.742 38.1249 32.0918 38.8197C31.3099 39.1669 30.4416 39.4275 29.5732 39.6015C29.139 39.6881 28.7048 39.6881 28.2706 39.7751H26.9681C26.0126 39.6881 25.0572 39.5145 24.1884 39.2539C23.32 38.9938 22.3646 38.6461 21.5832 38.212C19.933 37.3431 18.4569 36.1276 17.2409 34.6509C16.6331 33.9566 16.1114 33.1743 15.7642 32.3064C15.3426 31.4695 14.994 30.5977 14.7223 29.7008C14.4617 28.8324 14.2881 27.877 14.2881 27.0086V25.3584C14.2881 24.9242 14.3746 24.4035 14.3746 23.9688C14.4617 23.5346 14.5487 23.0134 14.6353 22.5797C14.7223 22.145 14.8093 21.6243 14.9824 21.1896C15.2435 20.3213 15.5907 19.4529 15.9383 18.5845C16.7197 16.9343 17.6751 15.4582 18.8911 14.3287C19.1517 14.0681 19.4988 13.7209 19.8465 13.4603C20.1941 13.1997 20.5408 12.9396 20.8884 12.766C21.2356 12.5049 21.5828 12.3313 21.9304 12.1577L22.4516 11.8971C22.5387 11.8971 22.6252 11.8101 22.7122 11.8101C22.7993 11.8101 22.8858 11.7236 22.9728 11.7236C23.32 11.55 23.7542 11.463 24.1018 11.2894C24.1884 11.2894 24.2754 11.2023 24.3624 11.2023C24.449 11.2023 24.536 11.1158 24.623 11.1158C24.7966 11.0288 25.0572 11.0288 25.2308 10.9417C25.3178 10.9417 25.4044 10.8552 25.578 10.8552C25.665 10.8552 25.752 10.8552 25.9251 10.7682C26.0126 10.7682 26.0992 10.7682 26.2728 10.6811H26.6204C26.7074 10.6811 26.794 10.6811 26.9676 10.5946C27.0546 10.5946 27.2282 10.5946 27.3152 10.5075H30.3545C31.1365 10.5075 31.9182 10.5944 32.6995 10.7682C34.1762 11.0288 35.5658 11.55 36.8683 12.1577C38.1046 12.7355 39.2465 13.4967 40.2553 14.4157L40.6024 14.7629C40.6895 14.8499 40.863 14.9369 40.9496 15.1105C41.0371 15.2841 41.2107 15.2841 41.2977 15.4577C41.3843 15.6317 41.5578 15.7183 41.6449 15.8053C42.0676 16.2289 42.4461 16.6945 42.7743 17.1949C43.4687 18.0633 44.0769 19.0187 44.5111 19.8871C44.5111 19.9741 44.5976 19.9741 44.5976 20.0607C44.5976 20.1477 44.6847 20.1477 44.6847 20.2347C44.7717 20.3213 44.7717 20.4083 44.8583 20.5819C44.9453 20.6689 44.9453 20.7555 45.0318 20.929C45.1189 21.0161 45.1189 21.1031 45.2054 21.2767C45.3795 21.7109 45.5531 22.0585 45.6401 22.4057C45.8137 23.0134 45.9872 23.5346 46.0743 23.9688C46.1608 24.1424 46.3344 24.316 46.5085 24.2294C46.682 24.2294 46.8556 24.0559 46.8556 23.8823C47.2028 22.8398 47.2028 22.2326 47.1162 21.6248Z" fill="url(#paint0_linear_13_642)"/>
</g>
<defs>
<linearGradient id="paint0_linear_13_642" x1="24.7013" y1="62.1079" x2="24.7013" y2="5.54519" gradientUnits="userSpaceOnUse">
<stop stop-color="#FFF100"/>
<stop offset="1" stop-color="#F05A28"/>
</linearGradient>
<clipPath id="clip0_13_642">
<rect width="48.895" height="48.895" fill="white"/>
</clipPath>
</defs>
</svg>
