<svg preserveAspectRatio="none" width="100%" height="100%" overflow="visible" style="display: block;" viewBox="0 0 93 104" fill="none" xmlns="http://www.w3.org/2000/svg">
<g id="Group 1000004481">
<path id="Vector 290" d="M0.292893 6.65685C-0.0976311 7.04738 -0.0976311 7.68054 0.292893 8.07107L6.65685 14.435C7.04738 14.8256 7.68054 14.8256 8.07107 14.435C8.46159 14.0445 8.46159 13.4113 8.07107 13.0208L2.41421 7.36396L8.07107 1.70711C8.46159 1.31658 8.46159 0.683417 8.07107 0.292893C7.68054 -0.0976312 7.04738 -0.0976312 6.65685 0.292893L0.292893 6.65685ZM82.9137 7.36396V8.36396H83.1273L83.3223 8.27668L82.9137 7.36396ZM90.2861 102.316C90.2861 102.869 90.7338 103.316 91.2861 103.316C91.8384 103.316 92.2861 102.869 92.2861 102.316H91.2861H90.2861ZM1 7.36396V8.36396H82.9137V7.36396V6.36396H1V7.36396ZM82.9137 7.36396L83.3223 8.27668C83.7631 8.07932 84.3309 8.0299 84.9746 8.33181C85.6369 8.64238 86.4592 9.36533 87.2654 10.8667C88.8902 13.8925 90.2861 19.7795 90.2861 30.4769H91.2861H92.2861C92.2861 19.6855 90.8912 13.3914 89.0274 9.92054C88.0894 8.17362 86.9931 7.0694 85.8238 6.52105C84.6361 5.96403 83.4596 6.02393 82.5051 6.45124L82.9137 7.36396ZM91.2861 30.4769H90.2861V102.316H91.2861H92.2861V30.4769H91.2861Z" fill="var(--stroke-0, black)"/>
</g>
</svg>
