<svg preserveAspectRatio="none" width="100%" height="100%" overflow="visible" style="display: block;" viewBox="0 0 50 49" fill="none" xmlns="http://www.w3.org/2000/svg">
<g id="Frame">
<path id="Vector" d="M24.5977 28.7579C25.741 28.7579 26.8374 28.3038 27.6458 27.4954C28.4542 26.687 28.9083 25.5906 28.9083 24.4473C28.9083 23.3041 28.4542 22.2077 27.6458 21.3993C26.8374 20.5909 25.741 20.1367 24.5977 20.1367C23.4545 20.1367 22.3581 20.5909 21.5497 21.3993C20.7413 22.2077 20.2871 23.3041 20.2871 24.4473C20.2871 25.5906 20.7413 26.687 21.5497 27.4954C22.3581 28.3038 23.4545 28.7579 24.5977 28.7579Z" fill="var(--fill-0, #61DAFB)"/>
<path id="Vector_2" d="M24.5976 33.2792C37.3719 33.2792 47.7279 29.325 47.7279 24.4473C47.7279 19.5695 37.3719 15.6158 24.5976 15.6158C11.8228 15.6158 1.46685 19.5695 1.46685 24.4473C1.46685 29.325 11.8228 33.2792 24.5976 33.2792Z" stroke="var(--stroke-0, #61DAFB)" stroke-width="2.44475"/>
<path id="Vector_3" d="M16.9489 28.8629C23.336 39.9264 31.9386 46.9179 36.1627 44.4795C40.3872 42.0406 38.6333 31.095 32.2462 20.032C25.858 8.96801 17.2554 1.97651 13.0314 4.41491C8.80735 6.8533 10.5612 17.7994 16.9484 28.8624L16.9489 28.8629Z" stroke="var(--stroke-0, #61DAFB)" stroke-width="2.44475"/>
<path id="Vector_4" d="M16.949 20.0321C10.5618 31.0951 8.80794 42.0408 13.0325 44.4796C17.256 46.9185 25.8586 39.927 32.2458 28.8635C38.6329 17.8001 40.3868 6.85492 36.1623 4.41604C31.9387 1.97715 23.3361 8.96865 16.949 20.0321Z" stroke="var(--stroke-0, #61DAFB)" stroke-width="2.44475"/>
</g>
</svg>
