<svg preserveAspectRatio="none" width="100%" height="100%" overflow="visible" style="display: block;" viewBox="0 0 60 41" fill="none" xmlns="http://www.w3.org/2000/svg">
<g id="Group 3">
<path id="Vector" d="M6.7048 6.32296e-05C13.6681 -0.013413 24.6373 2.12674 29.9343 6.92766C34.1319 3.3733 40.5255 1.43309 45.9024 0.571485C47.1996 0.363776 53.3053 -0.341016 54.193 0.231358C54.6296 0.841451 54.4758 2.51844 54.4626 3.31917C57.6041 3.2671 57.3638 3.14545 57.2957 6.27706C58.4163 6.23627 59.8974 5.92587 59.9362 7.4399C59.9823 9.24001 59.9721 11.0319 59.9721 12.8325L59.9743 22.6226L59.9794 31.9703C59.9845 33.6584 60.0248 35.3481 59.9765 37.0348C59.9428 38.2067 59.0162 38.2221 58.1058 38.214C55.6103 38.1671 52.9948 38.2038 50.4927 38.2001L34.8204 38.2038C33.3109 40.817 29.6501 41.0213 27.0828 40.037C26.1244 39.67 25.533 39.0182 24.9695 38.1928L9.4742 38.1972C6.86455 38.1957 4.22319 38.2038 1.61156 38.2016C1.4023 38.2016 0.561813 38.1063 0.441325 37.9899C0.109818 37.6706 0.0158448 37.2633 0.0132812 36.832C-0.00122131 34.3857 0.00442028 31.9351 0.00405406 29.4903L0.00295431 15.419L0.00310183 9.55743C0.00310183 8.71429 -0.0198967 7.7084 0.0593545 6.85713C0.120441 6.74917 0.199177 6.60716 0.290807 6.52491C0.842855 6.02944 1.96131 6.20661 2.65421 6.23678C2.60118 3.15211 2.30028 3.21766 5.50044 3.27896C5.49318 2.62544 5.45063 1.9665 5.44463 1.31488C5.43452 0.216637 5.73643 0.0279678 6.7048 6.32296e-05ZM6.6985 27.4184C12.4266 27.4418 18.0851 28.6759 23.3025 31.0401C25.121 31.8589 26.9353 32.9019 28.5324 34.1089C28.7389 34.2656 29.1798 34.7395 29.3278 34.6596L29.3051 8.05292C28.4928 7.15697 26.9831 6.23876 25.9073 5.66814C20.6631 2.88669 14.5512 1.52574 8.65356 1.24361C7.99575 1.21542 7.3375 1.19945 6.6791 1.19586L6.6985 27.4184ZM32.2122 6.70992C31.5435 7.14628 31.1948 7.44913 30.5935 7.9791C30.5041 8.80737 30.5473 10.3443 30.5481 11.2371L30.5539 17.1428L30.5627 34.7629C31.3105 34.136 31.8709 33.6694 32.7161 33.1582L33.5628 32.6272C33.9869 32.3687 34.3846 32.1534 34.8219 31.919C35.2328 31.6949 35.6181 31.5088 36.04 31.3074L37.1445 30.8006L38.1817 30.3765L39.9271 29.7262C43.9592 28.3302 48.9707 27.3817 53.2555 27.4689C53.32 18.8001 53.0966 9.9103 53.2658 1.26851C46.6327 1.24822 37.759 2.88559 32.2122 6.70992ZM1.2665 36.9953C2.97136 36.9521 4.7581 36.9931 6.47357 36.9902L17.3223 36.996L22.9327 36.9982C23.6362 36.9975 25.0231 36.9557 25.6819 37.0099C26.532 38.3004 26.8229 38.8321 28.5148 39.202C29.8823 39.5008 31.7698 39.3287 32.96 38.5538C33.5086 38.1964 33.8822 37.5497 34.2403 36.9997C35.3808 36.9469 36.5117 37.0048 37.6514 36.9953C44.6873 36.9345 51.7496 37.07 58.7833 36.9711C58.6222 27.1928 58.8763 17.2498 58.7547 7.44635L57.3001 7.43793L57.2957 24.0661C57.295 26.5065 57.2854 28.9476 57.314 31.3873C57.3081 32.242 56.6065 32.2757 55.9304 32.2881C55.6345 32.294 55.3386 32.2918 55.0478 32.2845C53.0336 32.231 51.0457 32.3072 49.0373 32.4741C46.6957 32.6682 44.3657 32.9824 42.0563 33.4168C40.0721 33.7368 36.7702 34.5124 34.9076 35.1767C37.97 35.0324 55.6001 33.5471 57.1155 34.9182C57.585 36.1589 55.2075 35.6982 54.5959 35.666C53.8334 35.625 53.0892 35.6022 52.326 35.5891C51.075 35.5612 49.8232 35.5693 48.5729 35.6132C44.8374 35.6938 41.1063 35.8974 37.3848 36.2241C36.0026 36.3405 34.6212 36.4665 33.2406 36.602C32.1551 36.7118 30.9282 36.8788 29.8559 36.8657C28.5316 36.8488 27.1113 36.6547 25.7849 36.5141C24.1601 36.3515 22.5342 36.1999 20.9075 36.0578C15.2334 35.5722 9.4359 35.4946 3.75537 35.7531C3.37311 35.7707 2.91584 35.6586 2.76239 35.2778C2.78766 35.0632 2.78378 34.9665 2.95304 34.823C4.00924 33.9258 16.3072 34.5586 18.1682 34.6736C20.3354 34.8076 22.5558 35.1196 24.7243 35.1306C18.5822 33.0564 11.6891 32.2427 5.2361 32.2544C4.58231 32.2559 3.87769 32.2757 3.22801 32.2427C2.98513 32.086 2.72752 31.9666 2.69595 31.6846C2.60777 30.8966 2.63809 29.9752 2.64051 29.1842L2.65223 24.4865L2.64505 7.37127L1.18564 7.37728L1.17495 27.3429L1.17758 33.2725C1.17846 34.3352 1.13415 35.9934 1.2665 36.9953ZM54.4413 4.46729C54.5146 6.00051 54.4677 7.97793 54.4699 9.54359L54.4794 18.7805L54.4692 24.8293C54.467 25.7536 54.541 27.6644 54.3337 28.454C53.5448 28.766 52.3136 28.6503 51.4471 28.6993C46.2518 28.993 41.1063 30.2117 36.4055 32.4654C35.2965 32.9978 33.8331 33.772 32.8509 34.5146C39.0943 32.6785 43.9124 31.5381 50.5498 31.1346L51.0245 31.0936C52.7171 31.0379 54.4106 31.0137 56.1047 31.0225L56.1179 4.47074L54.4413 4.46729ZM26.8271 34.4692C26.2638 33.9067 24.7598 33.1091 24.0275 32.7378C18.9287 30.2015 13.3399 28.8026 7.64754 28.6378C7.30307 28.6276 6.94878 28.6239 6.60461 28.6114C5.92401 28.5873 5.58321 28.6503 5.52263 27.8651C5.5156 27.7743 5.50996 27.6835 5.50564 27.5927C5.39995 25.2541 5.4959 22.0872 5.49619 19.6861L5.49941 4.45506L3.83148 4.45674C3.86619 6.50235 3.84751 8.58055 3.83279 10.6289C3.78394 17.4212 3.92699 24.2339 3.86451 31.0233C11.1955 31.0086 18.0512 31.7234 25.081 33.9573C25.5708 34.1125 26.3346 34.3703 26.8271 34.4692Z" fill="var(--fill-0, #03ACE3)"/>
<path id="Vector_2" d="M9.75588 21.2079C10.4399 21.1219 11.7269 21.3148 12.4408 21.4158C16.4743 21.987 20.4234 23.1225 24.0847 24.9198C24.745 25.2684 25.4781 25.5548 26.0716 26.0133C26.5667 26.3956 26.6955 26.7281 26.2676 27.2276C26.0897 27.2555 25.8817 27.2884 25.7111 27.2064C24.5276 26.6336 23.4047 25.8873 22.1878 25.3812C21.2972 25.0114 20.3613 24.6554 19.4491 24.3405C17.4186 23.6396 15.3311 23.1152 13.2102 22.7731C12.4145 22.6501 10.3867 22.478 9.81154 22.3073C9.45645 21.9741 9.55914 21.5967 9.75588 21.2079Z" fill="var(--fill-0, #03ACE3)"/>
<path id="Vector_3" d="M9.89418 5.46377C10.4344 5.40371 11.5641 5.56777 12.1359 5.63735C16.6019 6.19398 20.946 7.48096 24.9945 9.44695C25.7517 9.81953 27.0953 10.3705 26.2935 11.3489C25.64 11.3586 24.8069 10.785 24.2066 10.4758C23.3843 10.0504 22.5418 9.66543 21.6819 9.32237C19.2597 8.34234 16.7412 7.61961 14.1679 7.16595C12.8342 6.92477 11.5921 6.76811 10.2392 6.69619C9.5399 6.65906 9.37004 5.97843 9.89418 5.46377Z" fill="var(--fill-0, #03ACE3)"/>
<path id="Vector_4" d="M9.98636 15.9472C10.3127 15.9515 10.6485 15.9913 10.9744 16.0241C16.0163 16.5317 20.9735 17.8701 25.4267 20.3245C26.108 20.7 27.1884 21.2268 26.1266 22.008C25.6626 21.9709 24.4178 21.1883 23.9286 20.9379C19.8603 18.8541 15.3172 17.5976 10.7609 17.251C9.93589 17.1882 8.84484 16.6994 9.98636 15.9472Z" fill="var(--fill-0, #03ACE3)"/>
<path id="Vector_5" d="M9.93625 10.739C10.6377 10.6839 12.0617 10.8982 12.7798 11.006C16.7759 11.6062 20.747 12.6701 24.3816 14.4611C24.9533 14.7673 25.6124 14.9977 26.1151 15.4158C26.6565 15.866 26.6841 16.1737 26.2312 16.6817C25.6314 16.7001 24.6319 15.9726 24.0665 15.6884C23.1257 15.2156 22.2112 14.7652 21.2227 14.3927C18.891 13.5069 16.4791 12.8485 14.0206 12.4266C12.7453 12.2076 11.5311 12.0537 10.2439 11.9389C9.54739 11.8767 9.39621 11.2315 9.93625 10.739Z" fill="var(--fill-0, #03ACE3)"/>
<path id="Vector_6" d="M49.1168 21.2366C49.6529 21.1777 50.2638 21.1743 50.3964 21.8524C50.3011 22.1852 49.962 22.4041 49.6236 22.4327C44.4767 22.87 38.8947 24.386 34.4626 27.0967C34.174 27.2278 34.07 27.2717 33.7683 27.2307C33.5375 27.0901 33.5507 27.0901 33.4255 26.866C33.309 25.9915 35.0977 25.3037 35.7649 24.9808C39.9538 22.9388 44.4767 21.6701 49.1168 21.2366Z" fill="var(--fill-0, #03ACE3)"/>
<path id="Vector_7" d="M49.3227 5.49075C49.8743 5.397 50.4199 5.61518 50.2712 6.25955C49.8237 6.83874 48.7492 6.77868 48.0666 6.85624C43.4118 7.38467 38.3389 8.81418 34.3082 11.2422C33.9215 11.3761 33.4241 11.4085 33.348 10.8576C33.2659 10.2619 34.2818 9.77766 34.7477 9.53904C39.3629 7.17411 44.1963 6.00812 49.3227 5.49075Z" fill="var(--fill-0, #03ACE3)"/>
<path id="Vector_8" d="M49.3454 16.0383C49.8464 15.9963 50.4389 16.027 50.3173 16.7334C50.0551 17.2013 49.5424 17.2734 49.0465 17.3147C43.9018 17.7428 38.8457 19.2541 34.3331 21.8377C33.2966 22.2492 32.9429 21.1473 34.3726 20.3831C39.1841 17.8104 43.9414 16.5804 49.3454 16.0383Z" fill="var(--fill-0, #03ACE3)"/>
<path id="Vector_9" d="M49.4182 10.7654C49.6716 10.7379 50.0108 10.7471 50.1851 10.962C50.2986 11.1032 50.3433 11.2876 50.3074 11.465C50.177 12.0756 48.6499 12.072 48.1423 12.126C43.3726 12.6335 38.3824 14.1477 34.2565 16.5851C33.8053 16.7192 33.453 16.5309 33.3731 16.058C33.5548 15.2703 35.0138 14.7295 35.7104 14.4018C40.0172 12.3573 44.6639 11.1245 49.4182 10.7654Z" fill="var(--fill-0, #03ACE3)"/>
</g>
</svg>
