<svg preserveAspectRatio="none" width="100%" height="100%" overflow="visible" style="display: block;" viewBox="0 0 52 51" fill="none" xmlns="http://www.w3.org/2000/svg">
<g id="Frame" clip-path="url(#clip0_13_716)">
<path id="Vector" d="M46.0847 11.9783C45.805 11.0835 45.1342 10.3565 44.2951 9.90958L27.2425 1.74558C26.7951 1.52213 26.2915 1.4659 25.8441 1.4659C25.3967 1.4659 24.8941 1.4659 24.4467 1.57787L7.39308 9.79712C6.55404 10.1883 5.93894 10.9153 5.71549 11.8659L1.52128 30.2621C1.43891 30.7278 1.45096 31.2053 1.55671 31.6663C1.66246 32.1272 1.85975 32.5623 2.13686 32.9455L13.9352 47.5392C14.6056 48.21 15.5561 48.6574 16.5071 48.7136H35.294C36.3003 48.8251 37.2508 48.3777 37.8659 47.5392L49.6638 32.946C50.2227 32.1632 50.4466 31.2127 50.3347 30.2616L46.0847 11.9783Z" fill="var(--fill-0, white)" stroke="var(--stroke-0, white)" stroke-width="2.44475" stroke-miterlimit="10"/>
<path id="Vector_2" d="M46.0847 11.9783C45.805 11.0835 45.1342 10.3565 44.2951 9.90958L27.2425 1.74558C26.7951 1.52213 26.2915 1.4659 25.8441 1.4659C25.3967 1.4659 24.8941 1.4659 24.4467 1.57787L7.39308 9.79712C6.55404 10.1883 5.93894 10.9153 5.71549 11.8659L1.52128 30.2621C1.43891 30.7278 1.45096 31.2053 1.55671 31.6663C1.66246 32.1272 1.85975 32.5623 2.13686 32.9455L13.9352 47.5392C14.6056 48.21 15.5561 48.6574 16.5071 48.7136H35.294C36.3003 48.8251 37.2508 48.3777 37.8659 47.5392L49.6638 32.946C50.2227 32.1632 50.4466 31.2127 50.3347 30.2616L46.0847 11.9783Z" fill="var(--fill-0, #326DE6)"/>
<path id="Vector_3" d="M43.4562 29.5349C43.4005 29.5349 43.3448 29.5349 43.3448 29.4791C43.3448 29.4229 43.2323 29.4229 43.1208 29.4229C42.8974 29.3672 42.6734 29.3672 42.45 29.3672C42.338 29.3672 42.226 29.3672 42.1146 29.3114H42.0583C41.4162 29.2542 40.7802 29.1418 40.1573 28.9755C40.0681 28.9417 39.9872 28.8893 39.9198 28.8219C39.8524 28.7545 39.8 28.6735 39.7661 28.5844L39.3187 28.4724C39.5422 26.851 39.4307 25.1735 39.0953 23.5521C38.7004 21.9262 38.039 20.377 37.138 18.9672L37.4734 18.6318V18.576C37.4734 18.4083 37.5297 18.1849 37.6411 18.0724C38.1448 17.625 38.6479 17.2901 39.2068 16.9542L39.5422 16.7865C39.7661 16.6745 39.9333 16.563 40.1573 16.4511C40.2135 16.3953 40.2693 16.3953 40.325 16.3391C40.3812 16.2834 40.325 16.2834 40.325 16.2276C40.8286 15.8365 40.9401 15.1651 40.5489 14.662C40.3812 14.4381 40.0453 14.2708 39.7661 14.2708C39.4864 14.2708 39.2068 14.3823 38.9833 14.55L38.9276 14.6058C38.8713 14.662 38.8151 14.7182 38.7594 14.7182C38.5917 14.8854 38.424 15.0532 38.3125 15.2209C38.2562 15.3328 38.1448 15.3886 38.0885 15.4448C37.6974 15.8922 37.1938 16.3396 36.6906 16.6745C36.5791 16.7307 36.4672 16.787 36.3552 16.787C36.2995 16.787 36.1875 16.787 36.1318 16.7307H36.0755L35.6286 17.0104C35.1812 16.563 34.6781 16.1156 34.2302 15.6683C32.162 14.0469 29.5901 13.0402 26.962 12.761L26.9058 12.3136V12.3693C26.738 12.2578 26.6823 12.0901 26.6261 11.9219C26.6261 11.3068 26.6261 10.6922 26.7385 10.0209V9.96514C26.7385 9.85317 26.7943 9.74169 26.7943 9.62972C26.85 9.40627 26.85 9.18233 26.9058 8.95888V8.62346C26.962 8.0641 26.5146 7.50474 25.9552 7.449C25.6198 7.39326 25.2844 7.56097 25.0047 7.84016C24.8997 7.94203 24.816 8.06372 24.7585 8.19818C24.7009 8.33264 24.6706 8.4772 24.6693 8.62346V8.90265C24.6693 9.12659 24.725 9.35004 24.7813 9.57398C24.837 9.68546 24.837 9.79743 24.837 9.9094V9.96514C24.949 10.5802 24.949 11.1953 24.949 11.8662C24.8932 12.0339 24.837 12.2016 24.6693 12.3136V12.4255L24.6136 12.8724C23.9985 12.9287 23.3834 13.0402 22.7125 13.1521C20.0844 13.7115 17.6802 15.1094 15.8349 17.0662L15.4995 16.8427H15.4438C15.3876 16.8427 15.3318 16.8985 15.2198 16.8985C15.1079 16.8985 14.9964 16.8427 14.8844 16.7865C14.3808 16.3953 13.8782 15.9479 13.4865 15.5005C13.4308 15.3886 13.3188 15.3328 13.2631 15.2771C13.0954 15.1094 12.9834 14.9412 12.8157 14.7735C12.7599 14.7177 12.7037 14.7177 12.648 14.662L12.5922 14.6058C12.3683 14.4381 12.0886 14.3266 11.8094 14.3266C11.474 14.3266 11.1943 14.4381 11.0266 14.7177C10.6912 15.2214 10.8027 15.8922 11.2501 16.2834C11.3058 16.2834 11.3058 16.3391 11.3058 16.3391C11.3058 16.3391 11.4183 16.4516 11.4735 16.4516C11.6417 16.563 11.8652 16.6745 12.0886 16.7865L12.424 16.9542C12.9834 17.2896 13.5427 17.6255 13.9896 18.0724C14.1021 18.1849 14.2136 18.4078 14.1578 18.576V18.5198L14.4933 18.8552C14.437 18.9677 14.3808 19.0229 14.3256 19.1349C12.5922 21.875 11.8652 25.1177 12.3683 28.3047L11.9209 28.4167C11.9209 28.4724 11.8652 28.4724 11.8652 28.4724C11.8094 28.6401 11.6417 28.7521 11.474 28.8636C10.8521 29.035 10.2155 29.1475 9.57247 29.1995C9.46099 29.1995 9.34902 29.1995 9.23705 29.2552C9.0136 29.2552 8.78966 29.3114 8.56621 29.3114C8.51047 29.3114 8.45424 29.3672 8.34276 29.3672C8.28653 29.3672 8.28653 29.3672 8.2303 29.4229C7.61569 29.5349 7.22453 30.0942 7.33601 30.7089C7.44798 31.2125 7.95111 31.5479 8.45424 31.4917C8.5667 31.4917 8.62195 31.4917 8.73392 31.4359C8.78966 31.4359 8.78966 31.4359 8.78966 31.3802C8.78966 31.324 8.95786 31.3802 9.0136 31.3802C9.23705 31.324 9.46099 31.2125 9.6287 31.1562C9.74067 31.1005 9.85215 31.0448 9.96412 31.0448H10.0199C10.635 30.8208 11.1943 30.6536 11.8652 30.5411H11.9209C12.0886 30.5411 12.2563 30.5974 12.3683 30.7089C12.424 30.7089 12.424 30.7651 12.424 30.7651L12.9276 30.7093C13.7662 33.2812 15.3318 35.5734 17.5125 37.251C18.0157 37.6422 18.4631 37.9781 19.0219 38.2573L18.7427 38.6484C18.7427 38.7047 18.7985 38.7047 18.7985 38.7047C18.9104 38.8724 18.9104 39.0958 18.8542 39.264C18.6308 39.8229 18.2953 40.3823 17.9594 40.8854V40.9411C17.9037 41.0531 17.848 41.1088 17.736 41.2208C17.624 41.3328 17.5125 41.5562 17.3448 41.7802C17.2886 41.8359 17.2886 41.8916 17.2329 41.9479C17.2329 41.9479 17.2329 42.0036 17.1771 42.0036C16.8974 42.563 17.1209 43.2338 17.624 43.5135C17.7365 43.5692 17.9037 43.625 18.0157 43.625C18.4631 43.625 18.8542 43.3458 19.0782 42.9541C19.0782 42.9541 19.0781 42.8984 19.1339 42.8984C19.1339 42.8422 19.1896 42.7864 19.2459 42.7307C19.3016 42.5067 19.4136 42.3395 19.4693 42.1156L19.5813 41.7802C19.749 41.1651 20.0287 40.6057 20.3079 40.0468C20.4203 39.8791 20.5875 39.7672 20.7552 39.7114C20.8115 39.7114 20.8115 39.7114 20.8115 39.6552L21.0349 39.2078C22.6005 39.8229 24.2219 40.1026 25.8995 40.1026C26.9058 40.1026 27.9125 39.9906 28.9188 39.7114C29.5339 39.599 30.149 39.3755 30.7083 39.2078L30.9318 39.599C30.9875 39.599 30.9875 39.599 30.9875 39.6552C31.1552 39.7114 31.3229 39.8229 31.4349 39.9906C31.7146 40.55 31.9943 41.1088 32.162 41.7239V41.7802L32.2734 42.1156C32.3297 42.339 32.3859 42.563 32.4974 42.7307C32.5531 42.7864 32.5531 42.8422 32.6089 42.8984C32.6089 42.8984 32.6089 42.9541 32.6651 42.9541C32.8886 43.3453 33.2802 43.625 33.7276 43.625C33.8953 43.625 34.0068 43.5692 34.1745 43.5135C34.3984 43.401 34.6219 43.1781 34.6781 42.8984C34.7343 42.6187 34.7338 42.339 34.6219 42.0593C34.6219 42.0036 34.5661 42.0036 34.5661 42.0036C34.5661 41.9479 34.5104 41.8916 34.4542 41.8359C34.3427 41.6125 34.2307 41.4447 34.063 41.2765C34.0068 41.1651 33.951 41.1088 33.8391 40.9974V40.8854C33.4479 40.3818 33.1682 39.8229 32.9443 39.264C32.8885 39.0963 32.8885 38.8729 33.0005 38.7047C33.0005 38.6489 33.0563 38.6489 33.0563 38.6489L32.8886 38.2015C35.7401 36.4682 37.9208 33.7844 38.9271 30.5974L39.3745 30.6531C39.4307 30.6531 39.4307 30.5974 39.4307 30.5974C39.5422 30.4854 39.7104 30.4297 39.8776 30.4297H39.9338C40.5489 30.5411 41.164 30.7093 41.7234 30.9328H41.7791C41.8906 30.9885 42.0026 31.0448 42.1146 31.0448C42.338 31.1562 42.5057 31.2682 42.7297 31.324C42.7854 31.324 42.8411 31.3802 42.9531 31.3802C43.0088 31.3802 43.0088 31.3802 43.0651 31.4359C43.1766 31.4917 43.2328 31.4917 43.3448 31.4917C43.8479 31.4917 44.2953 31.1562 44.463 30.7093C44.4068 30.0942 43.9594 29.6469 43.4562 29.5349ZM27.2979 27.8016L25.788 28.5286L24.2786 27.8016L23.8875 26.1802L24.9495 24.838H26.6266L27.6891 26.1802L27.2979 27.8016ZM36.4119 24.1672C36.6911 25.3412 36.7473 26.5156 36.6354 27.6896L31.3234 26.1802C30.8203 26.0682 30.5411 25.5651 30.6526 25.062C30.7083 24.8943 30.7645 24.7823 30.8765 24.6708L35.0698 20.8682C35.6849 21.875 36.1322 22.9932 36.4119 24.1672ZM33.3922 18.7995L28.8073 22.0427C28.4161 22.2662 27.8568 22.2104 27.5776 21.8188C27.4651 21.7068 27.4094 21.5953 27.4094 21.4276L27.074 15.7802C29.5344 16.0599 31.7151 17.1219 33.3922 18.7995ZM23.2719 15.9479L24.3901 15.7245L24.1109 21.3156C24.1109 21.8193 23.6635 22.2104 23.1604 22.2104C22.9927 22.2104 22.8807 22.1542 22.713 22.098L18.0714 18.8C19.5255 17.4021 21.3146 16.3958 23.2714 15.9484M16.45 20.8682L20.5875 24.5584C20.9787 24.8943 21.0349 25.4531 20.6995 25.8443C20.5875 26.0125 20.4761 26.0682 20.2521 26.124L14.8287 27.6896C14.661 25.3412 15.2198 22.9365 16.45 20.8682ZM15.4995 30.3177L21.0349 29.3672C21.4823 29.3672 21.9297 29.6469 21.9854 30.0942C22.0412 30.262 22.0412 30.4854 21.9297 30.6531L19.8047 35.7969C17.848 34.5109 16.2823 32.5542 15.4995 30.3177ZM28.1917 37.251C27.4094 37.4187 26.6261 37.5307 25.7875 37.5307C24.6136 37.5307 23.3834 37.3068 22.2651 36.9713L25.0047 31.9953C25.2844 31.6599 25.7318 31.5479 26.1229 31.7713C26.2907 31.8833 26.4026 31.9953 26.5703 32.1625L29.2547 37.0276C28.9188 37.0833 28.5833 37.139 28.1917 37.251ZM35.0135 32.3864C34.1614 33.7425 33.0146 34.8892 31.6584 35.7411L29.4776 30.4854C29.3662 30.038 29.5901 29.5906 29.9813 29.4229C30.149 29.3672 30.3167 29.3114 30.4844 29.3114L36.0755 30.262C35.7963 31.0443 35.4609 31.7713 35.0135 32.3864Z" fill="var(--fill-0, white)"/>
</g>
<defs>
<clipPath id="clip0_13_716">
<rect width="51.8287" height="50.3619" fill="white"/>
</clipPath>
</defs>
</svg>
