<svg preserveAspectRatio="none" width="100%" height="100%" overflow="visible" style="display: block;" viewBox="0 0 49 49" fill="none" xmlns="http://www.w3.org/2000/svg">
<g id="Frame" clip-path="url(#clip0_13_341)">
<path id="Vector" d="M16.3007 1.46832H30.7687L15.7501 45.9956C15.5958 46.453 15.3019 46.8505 14.9098 47.1321C14.5178 47.4137 14.0472 47.5653 13.5645 47.5656H2.30299C1.75071 47.5661 1.21664 47.368 0.798326 47.0074C0.380008 46.6468 0.105342 46.1478 0.0244831 45.6015C-0.0297892 45.2397 0.00306595 44.8703 0.120317 44.5238L14.1141 3.03638C14.2685 2.57899 14.5625 2.18154 14.9547 1.89999C15.3468 1.61843 15.8174 1.46695 16.3002 1.46685L16.3007 1.46832Z" fill="url(#paint0_linear_13_341)"/>
<path id="Vector_2" d="M42.9724 47.567H29.981C29.3938 47.5677 28.8283 47.345 28.3992 46.9441L13.6559 33.1752C13.5002 33.0295 13.3919 32.8404 13.3448 32.6324C13.2977 32.4245 13.3141 32.2072 13.3919 32.0086C13.47 31.81 13.6061 31.6395 13.7826 31.5195C13.959 31.3995 14.1676 31.3355 14.381 31.3358H37.324L42.9714 47.5675L42.9724 47.567Z" fill="var(--fill-0, #0078D4)"/>
<path id="Vector_3" d="M30.8209 1.46831L20.6928 31.3383L37.2414 31.3344L42.9181 47.5665H29.9746C29.706 47.5634 29.4399 47.5151 29.1874 47.4238C28.9348 47.3318 28.7 47.1972 28.493 47.0258L18.541 37.7377L15.7549 45.954C15.6097 46.3662 15.3578 46.7325 15.025 47.0158C14.6922 47.299 14.2903 47.489 13.8602 47.5665H2.31025C1.94072 47.5672 1.57645 47.4789 1.24824 47.3091C0.92003 47.1393 0.637525 46.893 0.424601 46.591C0.211677 46.2889 0.0745932 45.9401 0.0249368 45.5739C-0.0247195 45.2077 0.0145108 44.835 0.139312 44.4871L14.1101 3.06816C14.2201 2.72045 14.4114 2.404 14.6683 2.14507C14.9251 1.88613 15.2399 1.69218 15.5867 1.57931C15.817 1.5045 16.0586 1.46685 16.3011 1.46782H30.8214L30.8209 1.46831Z" fill="url(#paint1_linear_13_341)"/>
<path id="Vector_4" d="M48.7743 44.5243C48.8908 44.8711 48.9234 45.2406 48.8693 45.6024C48.8152 45.9642 48.6761 46.3081 48.4633 46.6057C48.2503 46.903 47.9694 47.1452 47.6441 47.3124C47.3188 47.4796 46.9584 47.5668 46.5926 47.567H30.4665C30.8324 47.5666 31.1929 47.4792 31.5183 47.3121C31.8438 47.1449 32.1248 46.9028 32.3382 46.6057C32.5515 46.3084 32.691 45.9647 32.7452 45.6029C32.7994 45.241 32.7669 44.8715 32.6502 44.5247L18.6564 3.03634C18.5022 2.57974 18.2087 2.18296 17.8173 1.90179C17.4259 1.62061 16.9562 1.46917 16.4743 1.46876H32.5993C33.0813 1.46884 33.5512 1.61982 33.943 1.9005C34.3342 2.18254 34.6277 2.5796 34.7825 3.03634L48.7763 44.5247L48.7743 44.5243Z" fill="url(#paint2_linear_13_341)"/>
</g>
<defs>
<linearGradient id="paint0_linear_13_341" x1="21.5813" y1="4.88461" x2="6.54513" y2="49.3028" gradientUnits="userSpaceOnUse">
<stop stop-color="#114A8B"/>
<stop offset="1" stop-color="#0669BC"/>
</linearGradient>
<linearGradient id="paint1_linear_13_341" x1="26.2693" y1="25.5809" x2="22.7914" y2="26.7607" gradientUnits="userSpaceOnUse">
<stop stop-opacity="0.3"/>
<stop offset="0.1" stop-opacity="0.2"/>
<stop offset="0.3" stop-opacity="0.1"/>
<stop offset="0.6" stop-opacity="0.1"/>
<stop offset="1" stop-opacity="0"/>
</linearGradient>
<linearGradient id="paint2_linear_13_341" x1="24.3498" y1="3.58934" x2="40.8533" y2="47.5553" gradientUnits="userSpaceOnUse">
<stop stop-color="#3CCBF4"/>
<stop offset="1" stop-color="#2892DF"/>
</linearGradient>
<clipPath id="clip0_13_341">
<rect width="48.895" height="48.895" fill="white"/>
</clipPath>
</defs>
</svg>
