<svg preserveAspectRatio="none" width="100%" height="100%" overflow="visible" style="display: block;" viewBox="0 0 49 49" fill="none" xmlns="http://www.w3.org/2000/svg">
<g id="Frame" clip-path="url(#clip0_13_685)">
<path id="Vector" d="M46.8487 18.9946L48.5429 19.9627V20.6893L48.0589 22.3835L27.4838 27.2246L25.5496 22.4182L46.8487 18.9946Z" fill="var(--fill-0, #D97757)"/>
<path id="Vector_2" d="M39.1532 4.75772L41.5222 5.25449L42.151 6.02948L42.7504 7.887L42.502 9.07123L28.6946 27.9511L24.0955 23.352L36.8277 6.64457L39.1532 4.75772Z" fill="var(--fill-0, #D97757)"/>
<path id="Vector_3" d="M27.2424 1.80946L28.6945 0.841338L29.9047 1.3254L31.1153 3.01961L27.7993 22.9468L25.5481 21.4159L24.58 18.7531L26.2742 3.7457L27.2424 1.80946Z" fill="var(--fill-0, #D97757)"/>
<path id="Vector_4" d="M11.7148 2.12791L13.2065 0.221983L14.1796 0L16.1109 0.282124L17.0639 1.02826L24.0084 16.4238L26.5202 23.739L23.5816 25.3731L12.3802 5.04694L11.7148 2.12791Z" fill="var(--fill-0, #D97757)"/>
<path id="Vector_5" d="M4.48854 12.7028L4.00447 10.7656L5.45763 9.07136L7.15185 9.3134H7.63591L17.8027 16.8168L20.949 19.2371L25.3061 22.626L22.8858 26.741L20.7075 25.0468L19.2553 23.5947L5.2156 13.6699L4.48854 12.7028Z" fill="var(--fill-0, #D97757)"/>
<path id="Vector_6" d="M1.5842 25.2882L0.48895 24.0776V23.0009L1.5842 22.6254L13.9292 23.3515L26.0322 24.3196L25.6391 26.7301L2.55281 25.5303L1.5842 25.2882Z" fill="var(--fill-0, #D97757)"/>
<path id="Vector_7" d="M8.84612 37.8879H6.42582L5.46357 36.7799V35.4549L9.5727 32.5505L26.2782 21.9159L27.969 24.8041L8.84612 37.8879Z" fill="var(--fill-0, #D97757)"/>
<path id="Vector_8" d="M13.4452 44.653L12.4771 44.895L11.0249 44.1684L11.2669 42.9583L25.5482 24.0779L27.4844 26.7408L16.8346 40.78L13.4452 44.653Z" fill="var(--fill-0, #D97757)"/>
<path id="Vector_9" d="M25.5476 47.0729L24.8216 48.041L23.3694 48.5251L22.1592 47.5569L21.4326 46.1048L25.0636 26.4979L27.2423 26.7404L25.5476 47.0729Z" fill="var(--fill-0, #D97757)"/>
<path id="Vector_10" d="M37.8931 41.7476V43.6838L37.6511 44.4099L36.683 44.894L34.9883 44.6691L23.3532 27.3524L27.9684 23.8354L31.8409 30.8552L32.2047 33.3963L37.8931 41.7476Z" fill="var(--fill-0, #D97757)"/>
<path id="Vector_11" d="M43.4603 38.8428L43.7023 40.053L42.9762 41.0211L42.2502 40.7791L38.1352 37.8747L31.8414 32.307L27.0008 28.9186L28.4525 24.3195L30.8728 25.7717L32.3254 28.4341L43.4603 38.8428Z" fill="var(--fill-0, #D97757)"/>
<path id="Vector_12" d="M40.3134 26.4985L46.3647 26.9825L47.8169 27.9506L48.785 29.4028V30.4482L46.1227 31.5811L32.5675 28.1927L27.0003 27.9501L28.4525 22.867L32.3255 25.7714L40.3134 26.4985Z" fill="var(--fill-0, #D97757)"/>
</g>
<defs>
<clipPath id="clip0_13_685">
<rect width="48.895" height="48.895" fill="white"/>
</clipPath>
</defs>
</svg>
