<svg preserveAspectRatio="none" width="100%" height="100%" overflow="visible" style="display: block;" viewBox="0 0 200 133" fill="none" xmlns="http://www.w3.org/2000/svg">
<g id="Group 1000004483">
<path id="Vector 290" d="M0.292893 6.65685C-0.0976311 7.04738 -0.0976311 7.68054 0.292893 8.07107L6.65685 14.435C7.04738 14.8256 7.68054 14.8256 8.07107 14.435C8.46159 14.0445 8.46159 13.4113 8.07107 13.0208L2.41421 7.36396L8.07107 1.70711C8.46159 1.31658 8.46159 0.683417 8.07107 0.292893C7.68054 -0.0976312 7.04738 -0.0976312 6.65685 0.292893L0.292893 6.65685ZM180.639 7.36396V8.36396H180.77L180.896 8.33038L180.639 7.36396ZM198 131.042C198 131.595 198.448 132.042 199 132.042C199.552 132.042 200 131.595 200 131.042H199H198ZM1 7.36396V8.36396H180.639V7.36396V6.36396H1V7.36396ZM180.639 7.36396L180.896 8.33038C183.619 7.60637 187.816 8.04629 191.373 11.9808C194.96 15.9491 198 23.5898 198 37.4693H199H200C200 23.359 196.919 15.1334 192.856 10.6396C188.763 6.11207 183.779 5.49423 180.382 6.39754L180.639 7.36396ZM199 37.4693H198V131.042H199H200V37.4693H199Z" fill="var(--stroke-0, black)"/>
</g>
</svg>
