<svg preserveAspectRatio="none" width="100%" height="100%" overflow="visible" style="display: block;" viewBox="0 0 49 49" fill="none" xmlns="http://www.w3.org/2000/svg">
<g id="Frame" clip-path="url(#clip0_13_772)">
<path id="Vector" d="M6.85557 44.0221L2.9337 0H46.0528L42.1304 43.9982L24.4573 48.895" fill="var(--fill-0, #E44D26)"/>
<path id="Vector_2" d="M24.4929 45.1519V3.61365H42.1186L38.7546 41.1704" fill="var(--fill-0, #F16529)"/>
<path id="Vector_3" d="M10.9441 8.99688H24.4929V14.3929H16.8628L17.3625 19.92H24.4934V25.3034H12.4178L10.9441 8.99688ZM12.6554 28.0136H18.0749L18.4553 32.3276L24.4929 33.9441V39.5773L13.4162 36.4871" fill="var(--fill-0, #EBEBEB)"/>
<path id="Vector_4" d="M37.9943 8.99688H24.469V14.3929H37.4946L37.9943 8.99688ZM37.0076 19.92H24.469V25.3156H31.1246L30.4948 32.3276L24.469 33.9441V39.5538L35.5222 36.4876" fill="var(--fill-0, white)"/>
</g>
<defs>
<clipPath id="clip0_13_772">
<rect width="48.895" height="48.895" fill="white"/>
</clipPath>
</defs>
</svg>
