<svg preserveAspectRatio="none" width="100%" height="100%" overflow="visible" style="display: block;" viewBox="0 0 32 49" fill="none" xmlns="http://www.w3.org/2000/svg">
<g id="Group">
<path id="Vector" fill-rule="evenodd" clip-rule="evenodd" d="M12.7592 8.81871C12.8927 4.58097 11.465 2.08293 7.3612 0.432232C6.19456 4.51252 11.0102 8.27499 12.7592 8.81871Z" fill="var(--fill-0, #D1D3D4)" stroke="var(--stroke-0, black)" stroke-width="0.864464" stroke-linejoin="round"/>
<path id="Vector_2" fill-rule="evenodd" clip-rule="evenodd" d="M23.8882 16.0001C24.0217 12.5203 23.1431 11.116 22.483 10.1117C21.8141 9.17489 20.2084 7.70266 18.2355 7.64106C16.3696 7.58238 15.9208 8.61407 14.1997 8.67616C13.9176 5.54199 16.2826 3.82186 16.2826 3.82186C16.2826 3.82186 15.6362 2.90753 15.1008 2.68408C14.3312 3.36861 12.2126 5.64956 12.703 8.58571C11.1188 8.28256 10.0011 7.37653 8.33766 7.70364C6.07089 8.14956 4.20261 9.52009 3.13767 12.5271C2.07274 15.5342 3.51417 19.0424 3.82709 20.0443C4.14002 21.0461 6.45814 25.3059 8.27507 25.9327C10.092 26.5595 10.092 26.2774 11.0626 25.9019C12.0341 25.5254 13.5059 24.8369 15.6675 25.6202C17.8287 26.4026 18.1103 26.5903 19.4569 25.7136C20.8039 24.8369 22.5578 22.112 22.9646 21.3287C23.3719 20.5459 23.591 20.1386 23.7171 19.7313C25.026 19.0781 23.768 19.1187 23.8882 16.0001Z" fill="var(--fill-0, #D1D3D4)" stroke="var(--stroke-0, black)" stroke-width="0.864464" stroke-linejoin="round"/>
<path id="Vector_3" d="M27.4046 41.431C27.832 41.4326 28.2556 41.3499 28.651 41.1874C29.0464 41.025 29.4058 40.7861 29.7087 40.4844C30.0115 40.1827 30.2518 39.8242 30.4157 39.4294C30.5796 39.0346 30.664 38.6113 30.6639 38.1838V26.4862C30.664 26.0597 30.5801 25.6373 30.417 25.2432C30.2538 24.8492 30.0146 24.4911 29.713 24.1895C29.4114 23.8879 29.0533 23.6487 28.6592 23.4855C28.2652 23.3224 27.8428 23.2385 27.4163 23.2386H24.7393C24.5479 23.2386 24.3643 23.1625 24.229 23.0272C24.0936 22.8919 24.0176 22.7083 24.0176 22.5169V20.8153H2.90277L2.95557 45.7523C2.95599 45.8734 2.98678 45.9924 3.04512 46.0985C3.10347 46.2046 3.1875 46.2944 3.28953 46.3596C4.22978 46.9043 7.24465 47.9384 13.5746 47.9384C20.0385 47.9384 22.9277 46.5537 23.7545 45.9288C23.8357 45.8614 23.9011 45.777 23.9459 45.6815C23.9908 45.586 24.0141 45.4818 24.0142 45.3763C24.0176 44.6859 24.0176 43.087 24.0176 42.1424C24.0176 42.0463 24.0367 41.9512 24.0739 41.8627C24.1112 41.7741 24.1657 41.6939 24.2343 41.6266C24.3029 41.5594 24.3843 41.5066 24.4736 41.4712C24.5629 41.4359 24.6584 41.4187 24.7544 41.4207C25.5485 41.4319 26.5 41.4334 27.4046 41.431ZM24.0176 27.0319C24.0179 26.7927 24.113 26.5634 24.2821 26.3943C24.4512 26.2251 24.6805 26.13 24.9197 26.1297H27.2178C27.457 26.1299 27.6865 26.2249 27.8557 26.3941C28.0249 26.5632 28.1201 26.7926 28.1204 27.0319V37.5296C28.1202 37.769 28.0251 37.9985 27.8559 38.1677C27.6866 38.337 27.4571 38.4321 27.2178 38.4322H24.9197C24.6805 38.432 24.4512 38.3368 24.2821 38.1677C24.113 37.9986 24.0179 37.7693 24.0176 37.5301V27.0319Z" fill="var(--fill-0, white)" stroke="var(--stroke-0, black)" stroke-width="0.864464" stroke-linejoin="round"/>
<path id="Vector_4" fill-rule="evenodd" clip-rule="evenodd" d="M4.98415 20.6067V42.9762C4.98415 43.2343 5.12203 43.4729 5.34548 43.602C6.25835 44.0372 8.90749 45.0757 13.552 45.0757C18.2269 45.0757 20.7973 43.8137 21.6578 43.2935C21.7589 43.2284 21.8421 43.1389 21.8997 43.0333C21.9572 42.9278 21.9874 42.8094 21.9874 42.6892C21.9898 39.7227 21.9898 20.6062 21.9898 20.6062L4.98415 20.6067Z" fill="var(--fill-0, #FBB040)"/>
<path id="Vector_5" d="M7.48381 24.3956V41.6829" stroke="var(--stroke-0, #FFDB96)" stroke-width="1.98856" stroke-linecap="round"/>
<path id="Vector_6" fill-rule="evenodd" clip-rule="evenodd" d="M17.0917 25.1968C17.0917 24.8359 16.8795 24.4047 16.5309 24.1886C15.9591 23.8417 15.5186 23.315 15.2782 22.6909C10.6611 22.8464 6.44681 22.0357 4.3233 21.4632C3.77827 21.3085 3.22609 21.1803 2.66869 21.0789C1.39791 20.8266 0.432232 19.7108 0.432232 18.3691C0.432792 17.6615 0.707744 16.9817 1.19926 16.4727C1.69077 15.9637 2.36053 15.6651 3.06767 15.6398C3.35029 14.0781 4.71348 12.8919 6.35684 12.8919C6.79627 12.8919 7.2314 12.9784 7.63737 13.1466C8.04334 13.3148 8.41222 13.5613 8.72292 13.872C9.03362 14.1828 9.28006 14.5517 9.44818 14.9577C9.6163 15.3637 9.70279 15.7988 9.70273 16.2382C9.70273 16.627 9.63232 16.9991 9.51057 17.3467L9.52035 17.3486C9.7272 16.7025 10.1339 16.1388 10.6818 15.7387C11.2297 15.3386 11.8905 15.1228 12.569 15.1225C13.243 15.123 13.8996 15.3362 14.4454 15.7317C14.9912 16.1272 15.3983 16.6849 15.6088 17.3252C15.5214 16.4684 15.7548 15.6096 16.264 14.915C16.7732 14.2204 17.5219 13.7393 18.3653 13.5649C19.2087 13.3904 20.0868 13.5349 20.8298 13.9705C21.5728 14.4061 22.1279 15.1017 22.3876 15.9229L22.6907 15.8446C23.1066 15.6104 23.5765 15.4892 24.0538 15.493C24.531 15.4969 24.999 15.6256 25.411 15.8664C25.8231 16.1072 26.1649 16.4517 26.4025 16.8657C26.64 17.2796 26.7651 17.7486 26.7651 18.2258C26.7651 19.6086 25.7383 20.7513 24.4055 20.9336C24.1037 20.9763 23.8078 21.0532 23.5234 21.163C22.7316 21.4594 21.9233 21.71 21.1026 21.9135C21.0622 22.3071 20.9451 22.689 20.7579 23.0376C20.426 23.6606 20.2772 24.3647 20.3286 25.0687L20.3301 25.3767C20.3301 26.2715 19.6054 26.8157 18.7107 26.8157C18.4981 26.8157 18.2876 26.7738 18.0912 26.6925C17.8948 26.6111 17.7164 26.4918 17.5661 26.3415C17.4158 26.1912 17.2966 26.0127 17.2153 25.8163C17.134 25.6199 17.0917 25.4094 17.0917 25.1968Z" fill="var(--fill-0, white)" stroke="var(--stroke-0, black)" stroke-width="0.864464" stroke-linecap="round" stroke-linejoin="round"/>
</g>
</svg>
