<svg preserveAspectRatio="none" width="100%" height="100%" overflow="visible" style="display: block;" viewBox="0 0 49 49" fill="none" xmlns="http://www.w3.org/2000/svg">
<g id="Frame" clip-path="url(#clip0_13_858)">
<path id="Vector" d="M39.5179 31.6942C40.0313 32.2076 39.6676 33.0853 38.942 33.0853H25.4254C24.9746 33.0853 24.6103 33.4491 24.6103 33.8999V47.4169C24.6103 48.142 23.7332 48.5063 23.2198 47.9929L8.62997 33.4026C8.52913 33.3018 8.44915 33.182 8.39462 33.0502C8.34008 32.9184 8.31206 32.7771 8.31216 32.6345V17.6017C8.31216 17.1509 8.67593 16.7871 9.12724 16.7871H24.6103L39.5179 31.6942ZM24.6103 16.7871L9.70273 1.87904C9.18933 1.36613 9.55409 0.48895 10.2787 0.48895H40.0939C40.5447 0.48895 40.909 0.853218 40.909 1.30403V15.9725C40.909 16.4234 40.5447 16.7876 40.0939 16.7876L24.6103 16.7871Z" fill="var(--fill-0, black)"/>
</g>
<defs>
<clipPath id="clip0_13_858">
<rect width="48.895" height="48.895" fill="white"/>
</clipPath>
</defs>
</svg>
