<svg preserveAspectRatio="none" width="100%" height="100%" overflow="visible" style="display: block;" viewBox="0 0 14 9" fill="none" xmlns="http://www.w3.org/2000/svg">
<path id="Vector" d="M7.62871 0.146685C7.43411 0.065519 7.22288 0 7.15785 0H6.6381C6.57307 0 6.36184 0.065519 6.16675 0.146685L4.05546 1.02386C3.86037 1.10503 3.53571 1.25122 3.34062 1.34852L0.157064 3.00558C-0.0380273 3.10337 -0.0541633 3.28183 0.124304 3.41141L2.93479 5.39361C3.11326 5.52367 3.38951 5.73441 3.55185 5.88061L4.80258 6.95287C4.9654 7.09956 5.22503 7.32643 5.38786 7.47263L6.58969 8.54489C6.67072 8.61554 6.77459 8.65446 6.88209 8.65446C6.98959 8.65446 7.09345 8.61554 7.17448 8.54489L8.40908 7.47263C8.57141 7.32643 8.83153 7.09907 8.99386 6.95287L10.2446 5.86447C10.4069 5.71827 10.6832 5.50754 10.8621 5.37748L13.6721 3.37914C13.8506 3.24908 13.8345 3.07061 13.6394 2.97331L10.4558 1.34852C10.2607 1.25073 9.93607 1.10503 9.74098 1.02386L7.62871 0.146685Z" fill="var(--fill-0, white)"/>
</svg>
